<?xml version="1.0" standalone="no"?>
<!DOCTYPE svg PUBLIC "-//W3C//DTD SVG 20010904//EN"
 "http://www.w3.org/TR/2001/REC-SVG-20010904/DTD/svg10.dtd">
<svg version="1.0" xmlns="http://www.w3.org/2000/svg"
 width="700.000000pt" height="700.000000pt" viewBox="0 0 700.000000 700.000000"
 preserveAspectRatio="xMidYMid meet">
<metadata>
Created by potrace 1.14, written by Peter Selinger 2001-2017
</metadata>
<g transform="translate(0.000000,700.000000) scale(0.100000,-0.100000)"
fill="#000000" stroke="none">
<path d="M1751 5569 c1 -86 4 -117 13 -112 19 13 166 12 159 -1 -4 -6 1 -5 10
3 10 8 21 11 25 7 11 -12 10 -76 -2 -76 -8 0 -8 -2 0 -8 12 -8 13 -96 2 -108
-5 -4 -8 -12 -8 -18 0 -6 5 -4 11 4 9 13 10 13 6 0 -2 -10 -16 -15 -40 -14
-21 1 -37 -3 -37 -7 0 -5 5 -9 11 -9 5 0 7 -5 3 -11 -4 -8 -10 -6 -17 6 -7 14
-5 22 9 32 18 14 18 15 1 28 -12 8 -14 15 -8 20 14 8 14 25 1 25 -5 0 -9 -5
-7 -11 1 -6 -4 -14 -12 -17 -8 -2 -11 0 -8 5 3 5 -4 10 -16 10 -17 2 -13 -4
16 -22 34 -20 37 -24 21 -33 -11 -6 -15 -16 -11 -28 7 -18 6 -18 -8 0 -11 14
-15 16 -15 5 -1 -10 -3 -9 -11 4 -12 21 -29 22 -29 2 0 -8 -5 -15 -11 -15 -5
0 -7 5 -4 10 3 6 1 10 -4 10 -6 0 -11 -4 -11 -10 0 -6 -5 -9 -12 -8 -7 2 -12
-16 -13 -49 -2 -51 6 -66 21 -41 4 6 3 8 -2 5 -6 -3 -10 5 -10 18 0 13 4 21 8
19 5 -3 6 -9 3 -14 -3 -5 -1 -11 4 -14 5 -3 11 1 15 9 3 8 -2 18 -11 23 -11 6
-12 11 -4 16 6 4 11 2 11 -4 0 -6 5 -8 11 -4 8 5 8 9 -1 14 -8 5 -8 9 3 13 9
3 21 -2 29 -11 11 -13 11 -15 -2 -7 -12 6 -13 5 -3 -5 18 -20 28 -4 12 17 -13
16 -12 17 4 4 10 -8 16 -20 13 -27 -3 -7 -1 -16 4 -19 17 -10 11 -28 -6 -21
-14 5 -15 4 -5 -8 7 -8 19 -12 27 -9 13 5 12 9 -2 32 -17 25 -17 26 1 11 10
-8 16 -10 12 -3 -5 8 1 10 20 7 21 -3 24 -2 13 6 -13 9 -13 10 0 10 13 0 13 2
0 11 -13 9 -12 10 3 5 12 -4 16 -2 11 6 -5 7 -3 8 6 3 9 -5 11 -4 6 3 -5 8 -1
10 9 5 13 -5 14 -7 3 -14 -10 -7 -10 -9 2 -9 13 0 13 -1 0 -10 -13 -9 -13 -10
0 -10 12 0 12 -2 2 -9 -17 -11 -17 -21 0 -32 10 -7 10 -9 -2 -9 -13 0 -13 -1
0 -10 13 -9 13 -10 0 -10 -13 0 -13 -1 0 -10 12 -8 12 -10 1 -10 -10 0 -11 -3
-2 -13 8 -10 7 -17 -1 -25 -9 -9 -9 -12 1 -12 7 0 9 -5 6 -11 -5 -6 -12 -4
-20 8 -7 10 -11 22 -8 27 4 5 1 6 -5 2 -12 -7 -11 12 2 33 7 10 6 12 -4 6 -8
-5 -11 -4 -6 3 3 6 2 13 -3 17 -6 3 -8 -4 -6 -15 3 -13 0 -18 -7 -14 -7 5 -8
2 -3 -6 6 -9 4 -11 -5 -5 -8 5 -11 4 -6 -3 3 -6 2 -13 -4 -17 -6 -4 -8 -11 -5
-16 4 -5 1 -9 -5 -9 -6 0 -8 -4 -5 -10 3 -5 1 -10 -5 -10 -7 0 -9 8 -5 19 3
10 -1 24 -10 31 -9 8 -15 8 -15 2 0 -6 4 -13 10 -17 5 -3 7 -12 4 -19 -6 -15
-80 -21 -89 -7 -3 5 8 7 24 5 29 -5 50 9 31 21 -5 3 -10 1 -10 -4 0 -6 -5 -11
-11 -11 -5 0 -7 5 -3 12 4 6 3 8 -3 5 -6 -4 -17 1 -24 11 -13 16 -13 16 6 2
19 -14 19 -14 6 3 -29 37 -27 61 -31 -363 -2 -127 -6 -200 -14 -209 -8 -11 -8
-13 0 -8 8 5 11 -14 11 -63 0 -38 -4 -67 -9 -64 -4 3 -8 -2 -8 -11 0 -9 3 -14
8 -12 4 3 7 -10 8 -29 1 -25 -3 -33 -12 -30 -8 3 -11 0 -7 -9 3 -8 8 -13 12
-10 10 5 6 -64 -5 -89 -5 -13 -4 -17 3 -13 13 8 11 -18 -1 -30 -4 -4 -6 -2 -4
6 2 7 -3 16 -11 19 -10 3 -12 0 -8 -14 7 -18 6 -18 -8 0 -11 15 -12 23 -3 33
17 21 -1 29 -20 8 -16 -18 -16 -18 3 -4 18 13 19 13 6 -3 -7 -10 -18 -15 -24
-11 -6 3 -7 1 -3 -6 4 -6 12 -9 17 -6 5 4 9 1 9 -4 0 -6 -7 -11 -15 -11 -8 0
-15 5 -15 11 0 5 -5 7 -12 3 -6 -4 -8 -3 -5 3 4 6 0 13 -8 17 -8 3 -17 1 -20
-4 -4 -6 -1 -10 4 -10 6 0 11 -5 11 -11 0 -5 -4 -8 -9 -5 -5 3 -14 -1 -21 -9
-7 -8 -18 -15 -24 -15 -6 0 -3 5 7 11 9 6 15 15 11 20 -3 6 -12 5 -22 -3 -12
-10 -14 -10 -8 0 4 7 2 12 -5 12 -7 0 -5 6 6 13 10 8 19 26 19 40 1 15 10 33
20 40 16 12 16 13 -3 13 -11 0 -17 -5 -15 -11 3 -5 -1 -1 -10 9 -8 10 -13 22
-11 27 3 4 -1 10 -7 12 -10 4 -10 6 0 6 7 1 10 6 6 13 -4 6 -3 8 4 4 6 -3 14
-2 17 4 5 7 11 8 19 1 8 -7 12 -4 13 10 2 20 -12 26 -22 10 -7 -12 -45 -10
-45 2 0 5 7 7 15 4 8 -4 17 -3 19 2 3 4 -7 7 -22 7 -20 0 -28 -5 -28 -17 0
-10 4 -15 8 -13 11 7 10 -4 -3 -28 -6 -12 -7 -18 -1 -14 5 3 12 -1 16 -9 3 -8
0 -14 -6 -12 -15 3 -18 -23 -5 -40 6 -9 6 -13 -1 -13 -6 0 -10 -9 -9 -20 1
-11 5 -20 10 -20 5 0 5 -6 -2 -13 -8 -10 -7 -17 2 -27 6 -7 7 -10 1 -7 -8 5
-12 -55 -13 -205 -1 -117 -3 -214 -5 -215 -6 -6 -111 -7 -121 -1 -5 3 -19 4
-30 2 -11 -2 -29 -5 -41 -6 -19 -2 -21 -8 -21 -110 l0 -108 439 0 439 0 -2
135 c-1 74 -6 132 -11 129 -4 -3 -6 -9 -3 -14 3 -5 -4 -14 -15 -20 -16 -9 -22
-8 -26 5 -3 8 -10 12 -15 9 -5 -3 -7 -9 -5 -13 3 -3 -4 -7 -14 -7 -10 0 -17 3
-14 7 2 4 -3 10 -12 13 -8 3 -12 10 -9 16 3 5 1 10 -4 10 -14 0 -14 -23 -1
-36 7 -7 6 -11 -4 -11 -8 0 -13 3 -11 7 2 3 -5 11 -16 18 -20 13 -26 3 -9 -14
7 -7 6 -11 -4 -11 -8 0 -13 4 -11 8 3 4 -2 10 -11 13 -12 5 -15 2 -10 -11 6
-14 5 -15 -5 -6 -10 10 -9 17 6 33 10 11 14 20 9 20 -5 0 -2 5 6 10 9 6 10 10
3 10 -7 0 -16 -8 -22 -17 -9 -16 -10 -16 -8 3 1 16 7 21 26 20 13 -1 26 4 28
11 3 7 -5 10 -22 9 -14 -2 -28 1 -32 7 -3 6 -1 7 5 3 7 -4 12 -2 12 3 0 6 -6
11 -12 11 -7 0 -5 5 5 11 9 5 17 15 17 21 0 6 -7 5 -17 -3 -15 -11 -16 -11 -5
1 15 18 16 34 0 24 -7 -4 -8 -3 -4 4 4 6 14 8 23 5 15 -6 16 -5 3 9 -8 9 -19
13 -24 10 -5 -3 -6 0 -2 6 9 15 11 15 31 -4 12 -12 13 -19 4 -30 -14 -17 2
-19 19 -2 9 9 15 9 24 0 16 -16 33 -15 19 1 -6 8 -7 18 -3 22 4 5 -2 5 -13 1
-11 -4 -16 -4 -12 0 4 4 1 14 -6 23 -10 14 -10 14 4 4 9 -7 19 -10 22 -6 4 3
7 1 7 -5 0 -7 5 -12 11 -12 5 0 7 6 3 13 -6 9 -4 9 8 -1 13 -10 17 -10 21 0 2
7 8 9 13 5 5 -4 4 -11 -1 -15 -16 -12 -15 -30 1 -36 11 -4 15 -2 11 7 -3 7 1
21 9 32 12 16 16 17 27 5 6 -7 7 -10 1 -7 -6 3 -11 0 -11 -8 0 -8 4 -15 9 -15
4 0 8 -5 8 -11 0 -8 -5 -8 -15 1 -10 9 -15 9 -15 1 0 -10 11 -14 27 -8 5 1 8
28 9 59 0 37 -3 55 -10 50 -6 -3 -5 2 3 11 11 14 11 17 0 17 -9 0 -10 3 -4 8
14 10 15 42 1 42 -6 0 -4 5 4 10 13 9 13 11 0 20 -8 5 -10 10 -4 10 7 0 11 44
13 122 1 68 4 125 7 127 2 2 51 4 108 5 l104 1 4 -38 c2 -21 0 -43 -3 -49 -4
-7 0 -18 9 -26 9 -7 12 -11 5 -8 -18 10 -21 -56 -3 -72 8 -8 10 -11 3 -8 -7 4
-11 -1 -10 -13 1 -12 5 -17 12 -12 5 4 17 7 25 6 8 0 20 6 27 15 9 11 12 12
13 2 0 -7 5 -10 10 -7 6 3 10 1 10 -5 0 -6 5 -8 12 -4 7 5 5 11 -7 21 -11 7
-14 13 -9 13 17 0 33 -22 27 -39 -3 -10 -2 -12 4 -6 4 6 17 10 28 10 11 0 29
2 40 6 18 6 20 2 19 -31 -1 -21 -5 -43 -9 -49 -3 -6 -1 -11 5 -11 7 0 8 -6 0
-19 -5 -11 -7 -22 -2 -25 9 -6 8 -48 -2 -64 -4 -7 -3 -12 1 -12 5 0 8 -48 8
-107 -1 -60 3 -114 8 -120 6 -8 6 -13 0 -13 -17 0 -2 -49 16 -53 11 -3 10 -5
-5 -6 -17 -1 -20 -6 -16 -26 2 -14 10 -25 18 -25 7 0 15 -4 18 -9 3 -4 -7 -6
-22 -4 -23 3 -24 2 -7 -6 14 -7 16 -10 5 -10 -12 -1 -15 -9 -12 -35 4 -33 4
-33 60 -35 40 0 53 2 42 9 -9 6 -10 10 -3 10 6 0 14 -4 18 -9 3 -6 116 -10
269 -11 304 -1 272 -15 271 123 0 48 4 87 8 87 5 0 1 7 -7 16 -9 8 -14 20 -11
25 3 5 1 18 -6 30 -8 15 -8 19 0 15 6 -4 11 0 11 9 0 9 -4 13 -10 10 -5 -3
-10 -1 -10 4 0 6 4 11 8 11 4 0 9 10 9 22 2 16 0 19 -6 9 -14 -21 -46 32 -33
55 8 14 9 12 10 -10 0 -15 2 -29 4 -32 9 -8 38 8 32 17 -3 5 -10 7 -15 4 -5
-4 -9 -1 -9 4 0 6 4 11 8 11 5 0 9 7 9 15 0 9 -8 13 -21 10 -12 -2 -26 -4 -33
-4 -15 -1 -10 -46 8 -67 15 -19 22 -97 8 -88 -5 3 -7 21 -4 40 4 31 2 34 -11
23 -8 -7 -13 -18 -10 -25 4 -10 0 -11 -19 -2 -18 8 -22 15 -15 23 8 9 4 13
-15 13 -18 0 -23 -4 -16 -12 7 -8 4 -12 -9 -12 -14 0 -16 4 -9 17 11 22 12 32
0 25 -5 -3 -14 1 -21 9 -7 8 -17 15 -23 15 -6 0 0 -11 14 -26 21 -22 21 -24 4
-18 -17 7 -18 6 -7 -8 11 -14 10 -17 -7 -23 -13 -4 -18 -11 -14 -22 6 -14 7
-14 18 1 15 20 26 21 19 1 -4 -8 -1 -15 5 -15 6 0 11 7 11 15 0 8 5 15 12 15
6 0 8 -3 5 -7 -8 -8 32 -53 46 -53 6 0 1 10 -11 23 -24 26 -28 37 -11 37 5 0
7 -5 3 -12 -5 -7 -2 -9 9 -5 12 4 14 2 10 -11 -6 -14 -4 -15 9 -4 13 10 17 10
22 -4 4 -11 13 -14 28 -11 16 5 18 3 9 -6 -9 -9 -16 -9 -31 1 -31 19 -36 14
-12 -11 20 -21 20 -23 3 -23 -13 0 -17 5 -13 16 5 12 3 13 -9 3 -12 -10 -17
-8 -27 8 -11 17 -16 18 -28 8 -8 -7 -13 -17 -11 -23 3 -7 -3 -12 -13 -12 -10
0 -16 4 -13 9 2 4 -1 14 -7 23 -10 12 -16 12 -29 2 -14 -11 -14 -11 -4 2 7 9
8 21 3 29 -9 16 -2 43 10 36 4 -2 8 7 8 20 0 20 -3 23 -14 14 -10 -8 -14 -8
-14 0 0 6 4 11 9 11 5 0 7 12 4 28 -10 52 -9 147 1 161 6 9 7 12 1 9 -6 -4
-10 10 -11 34 -1 35 1 38 12 23 12 -16 13 -16 11 3 0 11 -6 20 -12 19 -9 -2
-13 66 -15 265 0 38 -3 46 -15 41 -10 -3 -12 -9 -7 -17 5 -6 9 -21 8 -33 -3
-26 -12 -39 -14 -20 -6 43 -9 57 -15 63 -4 4 -7 2 -7 -5 0 -7 -10 -21 -22 -32
-13 -10 -18 -18 -11 -19 6 0 15 5 19 11 4 8 9 7 15 -2 13 -20 11 -37 -2 -19
-8 12 -12 12 -16 2 -4 -10 -8 -10 -19 -1 -10 8 -14 8 -14 0 0 -6 -9 -2 -20 9
-12 12 -26 18 -32 14 -8 -5 -5 -10 7 -14 17 -6 17 -7 2 -13 -9 -3 -17 -2 -17
4 0 6 -6 7 -12 2 -19 -11 -38 -12 -38 -2 0 6 7 9 16 7 10 -2 19 2 21 9 3 7 -5
10 -22 9 -24 -3 -25 -2 -9 15 14 16 15 21 3 35 -15 19 -21 47 -8 38 12 -7 12
9 -1 22 -6 6 -6 15 1 24 8 12 9 12 7 -4 -2 -10 2 -21 9 -23 8 -3 10 3 8 16 -3
12 -7 29 -9 40 -4 15 1 18 24 16 38 -3 52 -14 45 -34 -3 -10 1 -24 9 -31 13
-10 15 -7 11 20 -2 17 -9 39 -16 48 -11 14 -11 15 1 5 9 -9 19 -9 33 -2 11 6
17 7 13 1 -3 -5 3 -17 14 -27 20 -18 29 -8 10 11 -12 12 6 14 162 16 107 1
127 8 108 38 -11 17 0 51 14 43 8 -5 8 -3 0 8 -18 22 -15 126 4 141 13 11 14
11 8 0 -7 -12 -4 -12 14 -2 15 8 20 8 16 1 -4 -6 0 -11 9 -11 10 0 13 5 9 13
-6 9 -4 9 7 1 8 -6 28 -11 44 -12 30 -2 30 -1 9 16 -11 9 -20 28 -19 42 0 14
-4 29 -10 33 -6 5 -4 7 5 4 9 -2 15 -15 15 -33 0 -18 8 -36 21 -46 23 -19 39
-24 30 -10 -2 4 -1 14 3 20 6 10 11 9 21 -3 11 -13 10 -14 -4 -9 -12 5 -15 2
-10 -9 10 -28 34 -7 34 30 0 24 -4 32 -12 27 -10 -6 -10 -4 0 7 9 9 12 68 12
219 0 151 -3 210 -12 219 -11 11 -10 13 0 7 10 -6 12 9 10 68 l-2 75 -88 0
c-49 0 -87 -3 -84 -8 3 -4 -1 -8 -9 -8 -8 0 -12 4 -10 8 3 3 -5 9 -16 12 -13
4 -18 10 -14 17 7 11 10 146 4 175 -1 6 -1 13 -1 16 1 3 -5 6 -13 6 -8 0 -11
-5 -8 -11 5 -7 2 -7 -8 0 -21 17 -1429 18 -1429 1 0 -9 -2 -9 -8 -1 -4 7 -20
12 -35 12 l-28 0 2 -119z m1450 84 c13 -16 12 -17 -3 -4 -10 7 -18 15 -18 17
0 8 8 3 21 -13z m-96 -2 c3 -5 2 -12 -3 -15 -5 -3 -9 1 -9 9 0 17 3 19 12 6z
m161 -17 c1 -9 0 -13 -4 -10 -3 4 -7 14 -8 22 -1 9 0 13 4 10 3 -4 7 -14 8
-22z m-85 -1 c13 -16 12 -17 -3 -4 -10 7 -18 15 -18 17 0 8 8 3 21 -13z m-12
-37 c-3 -3 -11 5 -18 17 -13 21 -12 21 5 5 10 -10 16 -20 13 -22z m93 9 c2 3
5 -2 5 -10 0 -19 0 -19 -23 7 -12 14 -13 18 -3 10 9 -6 18 -10 21 -7z m-121
-52 c12 -16 12 -17 -2 -6 -9 7 -19 10 -22 6 -4 -3 -7 -1 -7 5 0 17 16 15 31
-5z m-50 -10 c13 -16 12 -17 -3 -4 -10 7 -18 15 -18 17 0 8 8 3 21 -13z m124
-2 c-9 -8 -36 -10 -30 -2 2 4 11 8 20 8 8 0 13 -3 10 -6z m35 1 c0 -5 -10 -17
-22 -28 -23 -19 -23 -19 -5 2 9 11 14 24 10 27 -3 4 -1 7 5 7 7 0 12 -4 12 -8z
m-80 -5 c0 -2 -10 -12 -22 -23 l-23 -19 19 23 c18 21 26 27 26 19z m-325 -84
c-1 -10 2 -26 7 -37 8 -14 7 -17 -2 -11 -8 5 -11 3 -8 -6 3 -8 12 -13 19 -11
10 3 9 -2 -3 -15 -21 -23 -23 -34 -6 -44 10 -6 8 -9 -7 -9 -13 0 -16 -3 -8 -8
7 -4 11 -16 9 -27 -2 -11 0 -34 5 -52 4 -18 3 -36 -2 -39 -5 -3 -6 -11 -2 -17
4 -6 7 -21 7 -32 0 -11 -3 -26 -7 -32 -4 -6 -3 -14 3 -18 7 -4 7 -12 0 -24 -8
-15 -5 -18 15 -15 14 1 27 -2 30 -6 3 -5 14 -7 25 -5 11 2 20 0 20 -6 0 -5
-11 -9 -25 -9 -14 0 -25 5 -25 11 0 5 -5 7 -10 4 -8 -5 -8 -11 -1 -19 8 -9 7
-13 -3 -13 -9 0 -13 8 -10 20 3 16 1 18 -8 9 -7 -7 -12 -51 -11 -122 0 -60 -3
-110 -7 -110 -10 0 -6 -154 5 -162 6 -5 6 -8 -2 -8 -12 0 -11 -15 2 -55 5 -15
3 -14 -8 4 -10 16 -16 20 -21 12 -6 -9 -11 -9 -22 0 -11 9 -14 8 -14 -2 0 -12
-2 -12 -9 0 -6 9 -10 10 -16 2 -5 -9 -10 -9 -21 0 -11 9 -14 8 -14 -2 0 -12
-2 -12 -9 0 -6 9 -10 10 -16 2 -5 -9 -10 -9 -21 0 -8 6 -14 8 -14 5 0 -4 -10
-1 -22 5 -20 11 -21 10 -11 -2 10 -13 0 -15 -70 -15 -45 1 -85 5 -89 11 -5 7
-8 6 -8 -1 0 -6 -7 -11 -15 -11 -8 0 -15 5 -15 11 0 6 -5 4 -10 -4 -7 -12 -12
-12 -22 -2 -10 10 -10 15 2 22 8 5 10 10 4 10 -6 0 -11 7 -11 15 0 8 5 15 11
15 6 0 4 5 -4 10 -13 9 -13 10 0 10 13 0 13 1 0 10 -12 8 -12 10 -1 10 8 0 4
8 -10 19 -20 17 -22 22 -10 33 8 7 11 8 8 2 -4 -7 1 -18 11 -25 15 -13 16 -12
3 4 -7 9 -9 17 -4 17 5 0 9 9 9 20 0 11 -4 20 -8 20 -5 0 -4 9 2 20 7 14 7 20
0 21 -5 1 -14 2 -19 3 -5 0 -13 4 -16 8 -4 4 4 5 17 3 21 -4 25 -1 24 18 0 12
-8 28 -16 35 -13 11 -13 11 1 7 10 -4 16 0 16 9 0 8 -5 12 -11 9 -8 -5 -8 -3
0 8 6 8 10 75 10 171 -1 87 3 158 7 158 5 0 5 5 1 11 -6 10 -8 62 -5 167 l1
28 219 2 c204 2 219 1 216 -15z m459 -31 c3 -5 -1 -9 -9 -9 -8 0 -12 4 -9 9 3
4 7 8 9 8 2 0 6 -4 9 -8z m161 -2 c3 -5 1 -10 -4 -10 -6 0 -11 5 -11 10 0 6 2
10 4 10 3 0 8 -4 11 -10z m-555 -40 c0 -5 -5 -10 -11 -10 -5 0 -7 5 -4 10 3 6
8 10 11 10 2 0 4 -4 4 -10z m95 -9 c3 -5 2 -12 -3 -15 -5 -3 -9 1 -9 9 0 17 3
19 12 6z m-15 -71 c0 -5 -5 -10 -11 -10 -5 0 -7 5 -4 10 3 6 8 10 11 10 2 0 4
-4 4 -10z m-100 -22 c0 -4 -4 -8 -9 -8 -6 0 -12 4 -15 8 -3 5 1 9 9 9 8 0 15
-4 15 -9z m83 -34 c8 11 17 13 27 6 8 -5 11 -12 7 -17 -5 -4 -12 -1 -17 7 -7
11 -10 11 -10 2 0 -7 7 -15 15 -18 8 -4 13 -10 10 -14 -3 -4 3 -14 13 -21 16
-13 16 -13 2 5 -12 16 -12 18 -1 11 10 -5 12 -4 7 3 -5 8 -1 10 11 6 17 -5 17
-5 1 6 -23 14 -23 32 -1 28 16 -3 18 -17 18 -109 l0 -106 -25 1 c-14 1 -33 -2
-42 -6 -11 -5 -23 -2 -34 10 -10 9 -26 18 -36 18 -10 1 -20 3 -23 4 -3 1 -11
3 -17 4 -7 0 -13 6 -13 11 0 6 -4 15 -8 22 -4 6 -3 14 1 17 10 6 10 46 -1 63
-4 6 -3 14 2 17 5 4 8 17 5 30 -4 22 -1 24 36 23 45 -1 47 -3 23 -31 -10 -12
-14 -18 -9 -14 5 4 16 2 24 -5 9 -7 13 -7 9 -1 -4 7 2 10 18 8 25 -2 34 10 15
21 -5 3 -10 1 -10 -4 0 -25 -16 -9 -17 17 0 15 1 19 4 9 4 -16 6 -17 16 -3z
m-1183 -19 c0 -2 -6 -8 -13 -14 -10 -8 -14 -7 -14 2 0 8 6 14 14 14 7 0 13 -1
13 -2z m113 -20 c4 3 5 2 2 -2 -11 -14 -32 -10 -44 9 -11 18 -11 18 12 3 13
-8 27 -13 30 -10z m14 -122 c-4 -3 1 -15 10 -25 14 -16 15 -21 4 -28 -20 -12
-41 -1 -38 18 3 20 16 42 24 42 4 0 3 -3 0 -7z m417 -61 c3 -5 -1 -9 -9 -9 -8
0 -12 4 -9 9 3 4 7 8 9 8 2 0 6 -4 9 -8z m1057 -25 c-10 -9 -11 -8 -5 6 3 10
9 15 12 12 3 -3 0 -11 -7 -18z m32 3 c-3 -12 -8 -19 -11 -16 -5 6 5 36 12 36
2 0 2 -9 -1 -20z m-1168 0 c3 -6 -1 -7 -9 -4 -18 7 -21 14 -7 14 6 0 13 -4 16
-10z m1055 -2 c0 -4 -4 -8 -9 -8 -6 0 -12 4 -15 8 -3 5 1 9 9 9 8 0 15 -4 15
-9z m176 -17 c0 -16 -4 -27 -7 -25 -4 2 -6 12 -4 22 2 9 4 20 4 25 1 4 3 7 5
7 2 0 3 -13 2 -29z m-1195 2 c13 -16 12 -17 -3 -4 -17 13 -22 21 -14 21 2 0
10 -8 17 -17z m594 7 c-3 -5 -12 -10 -18 -10 -7 0 -6 4 3 10 19 12 23 12 15 0z
m-550 -10 c-3 -5 -12 -10 -18 -10 -7 0 -6 4 3 10 19 12 23 12 15 0z m45 5 c0
-1 -10 -10 -22 -21 -14 -12 -18 -13 -10 -3 6 9 10 18 7 21 -3 2 2 5 10 5 8 0
15 -1 15 -2z m670 1 c0 -2 -7 -7 -16 -10 -8 -3 -12 -2 -9 4 6 10 25 14 25 6z
m313 -9 c-4 -6 0 -8 9 -5 8 4 15 1 15 -7 0 -7 -6 -11 -14 -8 -7 3 -19 0 -26
-6 -10 -8 -14 -7 -14 4 0 8 5 11 10 8 6 -4 8 0 5 9 -4 8 0 15 8 15 7 0 10 -5
7 -10z m-1087 -19 c12 -14 13 -18 3 -10 -9 6 -18 10 -21 7 -2 -3 -5 2 -5 10 0
19 0 19 23 -7z m630 13 c-6 -9 -46 -22 -46 -15 0 3 10 9 23 14 29 11 29 11 23
1z m84 5 c0 -2 -8 -10 -17 -17 -16 -13 -17 -12 -4 4 13 16 21 21 21 13z m-590
-10 c0 -2 -8 -10 -17 -17 -16 -13 -17 -12 -4 4 13 16 21 21 21 13z m608 -19
c8 -10 6 -13 -11 -14 -12 0 -16 1 -9 4 6 3 10 9 6 14 -8 14 2 11 14 -4z
m-1218 -7 c0 -5 -2 -10 -4 -10 -3 0 -8 5 -11 10 -3 6 -1 10 4 10 6 0 11 -4 11
-10z m425 0 c-3 -5 -12 -10 -18 -10 -7 0 -6 4 3 10 19 12 23 12 15 0z m103
-15 c-3 -3 -9 2 -12 12 -6 14 -5 15 5 6 7 -7 10 -15 7 -18z m576 17 c3 -5 -1
-9 -9 -9 -8 0 -12 4 -9 9 3 4 7 8 9 8 2 0 6 -4 9 -8z m480 0 c3 -5 -1 -9 -9
-9 -8 0 -12 4 -9 9 3 4 7 8 9 8 2 0 6 -4 9 -8z m-323 -19 c13 -16 12 -17 -3
-4 -17 13 -22 21 -14 21 2 0 10 -8 17 -17z m-1161 3 c0 -2 -7 -7 -16 -10 -8
-3 -12 -2 -9 4 6 10 25 14 25 6z m355 -42 c1 -20 -5 -40 -14 -47 -13 -10 -14
-10 -5 3 6 8 10 32 9 52 -1 21 1 35 4 32 3 -3 6 -21 6 -40z m1062 29 c0 -9 -4
-10 -14 -2 -7 6 -13 12 -13 14 0 1 6 2 13 2 8 0 14 -6 14 -14z m179 4 c3 -3
-15 -4 -41 -2 -25 1 -48 5 -51 8 -3 3 15 4 41 2 25 -1 48 -5 51 -8z m-1124
-14 c-1 -4 7 -17 16 -28 17 -20 17 -20 -4 -2 -11 9 -21 24 -21 32 0 8 2 13 5
11 2 -2 4 -8 4 -13z m566 -10 c-12 -15 -22 -18 -14 -4 4 5 0 11 -6 14 -7 3 -3
4 9 4 17 -1 19 -4 11 -14z m79 0 c0 -9 -4 -10 -14 -2 -7 6 -13 12 -13 14 0 1
6 2 13 2 8 0 14 -6 14 -14z m320 1 c-3 -4 -2 -14 3 -23 6 -13 4 -17 -10 -17
-10 0 -16 5 -12 11 4 5 7 13 8 18 3 15 4 17 11 17 3 0 3 -3 0 -6z m-1011 -11
c-2 -3 -6 -3 -9 -1 -3 2 -15 -6 -28 -17 l-24 -20 18 21 c9 11 24 21 32 21 8 0
13 -2 11 -4z m585 -10 c13 -16 12 -17 -3 -4 -17 13 -22 21 -14 21 2 0 10 -8
17 -17z m148 14 c-2 -1 -13 -9 -24 -17 -19 -14 -19 -14 -6 3 7 9 18 17 24 17
6 0 8 -1 6 -3z m418 -19 c-3 -8 -6 -5 -6 6 -1 11 2 17 5 13 3 -3 4 -12 1 -19z
m-17 8 c0 -2 -8 -10 -17 -17 -16 -13 -17 -12 -4 4 13 16 21 21 21 13z m-1235
-16 c-3 -5 -12 -10 -18 -10 -7 0 -6 4 3 10 19 12 23 12 15 0z m675 -5 c0 -1
-6 -7 -13 -13 -10 -8 -13 -6 -13 7 0 11 6 17 13 14 7 -3 13 -6 13 -8z m80 1
c-7 -7 -13 -7 -20 0 -6 6 -3 10 10 10 13 0 16 -4 10 -10z m-663 -11 c0 -8 -4
-15 -9 -15 -10 0 -11 14 -1 23 9 10 10 9 10 -8z m-353 -3 c3 -5 -1 -9 -9 -9
-8 0 -12 4 -9 9 3 4 7 8 9 8 2 0 6 -4 9 -8z m963 -3 c-9 -6 -14 -15 -11 -21 4
-7 2 -8 -5 -4 -14 9 3 36 23 36 6 0 3 -5 -7 -11z m97 -1 c-4 -5 -9 -7 -12 -4
-3 3 -12 0 -21 -7 -14 -10 -14 -10 -4 4 13 16 46 23 37 7z m-1204 -18 c0 -5
-5 -10 -11 -10 -5 0 -7 5 -4 10 3 6 8 10 11 10 2 0 4 -4 4 -10z m523 -6 c19 2
38 1 43 -2 17 -13 14 -39 -6 -57 -19 -17 -19 -19 -3 -30 18 -14 28 -109 10
-98 -5 3 -6 -5 -3 -18 3 -13 3 -18 0 -11 -4 9 -9 10 -19 2 -10 -8 -15 -8 -20
1 -6 8 -10 7 -16 -2 -7 -12 -9 -12 -9 0 0 11 -3 11 -15 1 -8 -7 -15 -8 -15 -2
0 5 7 15 15 22 11 9 15 9 15 1 0 -7 5 -9 11 -5 8 4 7 9 -2 16 -11 8 -11 9 2 5
8 -3 26 4 40 14 13 11 17 17 8 14 -9 -3 -22 1 -29 10 -8 9 -8 15 -2 15 6 0 14
-5 17 -10 4 -6 11 -8 16 -4 5 3 7 10 3 15 -3 5 -10 7 -15 4 -5 -4 -9 -1 -9 4
0 6 -3 10 -7 10 -5 -1 -15 -1 -23 0 -13 1 -13 3 0 12 12 9 11 10 -5 5 -17 -6
-16 -3 5 16 14 13 21 20 16 16 -6 -5 -14 -8 -18 -8 -12 0 -6 33 7 43 11 8 -39
2 -54 -7 -5 -4 -13 -1 -16 5 -4 5 -13 8 -21 5 -8 -3 -14 1 -14 10 0 12 4 12
20 4 19 -10 24 -6 21 13 -1 4 8 3 18 -3 11 -6 35 -8 54 -6z m-126 -1 c-10 -10
13 -32 28 -27 7 3 16 1 20 -5 4 -8 12 -8 26 -1 10 6 19 9 20 8 5 -19 4 -50 -3
-54 -14 -9 -9 -20 15 -33 12 -6 14 -9 5 -7 -10 3 -20 1 -23 -4 -4 -6 -11 -10
-17 -10 -7 0 -7 4 1 13 8 10 7 17 -1 25 -9 9 -9 15 0 24 7 7 12 16 12 22 0 5
-7 1 -15 -10 -8 -10 -15 -14 -14 -9 3 22 -2 27 -15 16 -10 -8 -16 -9 -21 -1
-3 6 -10 8 -15 5 -5 -3 -12 0 -16 6 -4 8 -3 9 4 5 7 -4 12 -3 12 3 0 5 -5 11
-12 13 -11 4 -3 28 9 28 4 0 3 -3 0 -7z m40 -61 c10 8 12 7 8 -4 -3 -8 1 -21
10 -28 11 -9 12 -16 5 -25 -14 -17 6 -31 24 -16 9 7 19 6 34 -5 21 -15 21 -41
0 -28 -5 3 -22 -5 -36 -19 -17 -15 -37 -24 -54 -23 -16 1 -28 -3 -28 -9 0 -5
-5 -2 -11 8 -13 22 -6 32 13 21 19 -12 38 -14 38 -3 0 6 4 8 8 5 4 -2 14 0 22
6 12 8 12 9 -3 4 -10 -3 -16 -2 -13 2 7 12 -26 11 -41 -1 -9 -6 -13 -6 -13 2
0 7 -5 9 -10 6 -13 -8 -8 17 5 28 6 4 5 10 -3 16 -11 7 -10 9 3 14 9 4 14 3
11 -1 -2 -4 -1 -14 5 -22 6 -10 9 -11 9 -2 0 6 3 11 8 10 4 -2 8 2 10 7 1 6
-3 10 -10 10 -6 0 -13 6 -16 13 -2 8 2 10 15 5 10 -3 15 -3 12 1 -4 4 -16 8
-27 11 -15 2 -19 0 -15 -11 3 -8 1 -14 -4 -14 -13 0 -12 33 1 42 6 4 15 3 20
-2 6 -6 15 -5 23 2z m3 -116 c0 -2 -7 -7 -16 -10 -8 -3 -12 -2 -9 4 6 10 25
14 25 6z m195 -295 c-6 -5 -25 10 -25 20 0 5 6 4 14 -3 8 -7 12 -15 11 -17z
m23 4 c-3 -3 -9 2 -12 12 -6 14 -5 15 5 6 7 -7 10 -15 7 -18z m47 15 c3 -5 1
-10 -4 -10 -6 0 -11 5 -11 10 0 6 2 10 4 10 3 0 8 -4 11 -10z m99 -2 c-3 -4
-9 -8 -15 -8 -5 0 -9 4 -9 8 0 5 7 9 15 9 8 0 12 -4 9 -9z m-131 -70 c-10 -17
-24 -33 -31 -34 -7 -1 -8 0 -2 3 5 2 7 10 4 15 -4 7 -2 8 4 4 7 -4 12 -2 12 3
0 6 -4 11 -10 11 -5 0 -10 5 -10 11 0 8 6 7 17 -2 15 -12 16 -12 10 4 -3 9 -4
24 0 33 5 15 7 15 15 0 7 -12 4 -26 -9 -48z m62 52 c-3 -5 -14 -10 -23 -10
-15 0 -15 2 -2 10 20 13 33 13 25 0z m46 -6 c10 -9 15 -23 12 -32 -5 -10 -3
-13 6 -8 9 6 9 3 -1 -13 -7 -12 -14 -17 -16 -11 -2 6 -9 7 -15 3 -6 -3 -3 4 6
18 16 23 16 25 -5 41 -13 10 -19 18 -14 18 5 0 17 -7 27 -16z m-131 -9 c0 -7
-30 -13 -34 -7 -3 4 4 9 15 9 10 1 19 0 19 -2z m120 -11 c0 -2 -7 -4 -15 -4
-8 0 -15 4 -15 10 0 5 7 7 15 4 8 -4 15 -8 15 -10z m-35 -14 c8 -13 -5 -13
-25 0 -13 8 -13 10 2 10 9 0 20 -4 23 -10z m-105 -15 c0 -8 -4 -15 -10 -15 -5
0 -7 7 -4 15 4 8 8 15 10 15 2 0 4 -7 4 -15z m85 -5 c3 -5 2 -10 -4 -10 -5 0
-13 5 -16 10 -3 6 -2 10 4 10 5 0 13 -4 16 -10z m-951 -50 c-1 -17 -5 -34 -9
-38 -10 -11 -25 21 -15 34 6 6 7 14 3 18 -4 3 -8 13 -9 21 -2 11 2 12 15 6 12
-7 17 -20 15 -41z m983 43 c-4 -4 10 -15 30 -24 21 -10 33 -18 27 -19 -7 0
-25 7 -40 15 -26 13 -29 13 -36 -3 -5 -14 -7 -14 -7 -1 -1 14 17 39 28 39 2 0
1 -3 -2 -7z m-48 -17 c9 -11 9 -16 0 -22 -8 -4 -9 -3 -5 4 4 7 2 12 -3 12 -6
0 -11 5 -11 10 0 14 5 13 19 -4z m116 4 c3 -5 1 -10 -4 -10 -6 0 -11 5 -11 10
0 6 2 10 4 10 3 0 8 -4 11 -10z m-135 -31 c0 -6 -4 -7 -10 -4 -5 3 -10 11 -10
16 0 6 5 7 10 4 6 -3 10 -11 10 -16z m-24 -16 c-3 -3 -12 -1 -19 5 -8 7 -18 8
-22 4 -5 -4 -5 -1 -1 6 5 9 12 9 27 1 12 -6 18 -13 15 -16z m114 12 c9 -10 9
-15 1 -15 -6 0 -11 5 -11 11 0 5 -4 7 -10 4 -5 -3 -10 -1 -10 4 0 16 16 13 30
-4z m-40 -15 c8 -5 11 -13 6 -17 -5 -4 -11 -2 -13 5 -7 17 -21 15 -55 -9 -16
-12 -32 -18 -35 -15 -4 3 -1 6 6 6 7 0 9 5 5 12 -4 6 -3 8 3 5 6 -4 19 0 29 8
22 17 34 18 54 5z m-100 -10 c0 -5 -4 -10 -10 -10 -5 0 -10 5 -10 10 0 6 5 10
10 10 6 0 10 -4 10 -10z m180 -4 c0 -8 -4 -18 -10 -21 -6 -4 -7 1 -3 11 5 13
3 15 -7 9 -9 -5 -11 -4 -6 3 10 17 26 15 26 -2z m-50 -20 c0 -3 -4 -8 -10 -11
-5 -3 -10 -1 -10 4 0 6 5 11 10 11 6 0 10 -2 10 -4z m-541 -49 c-2 -1 -13 -9
-24 -17 -19 -14 -19 -14 -6 3 7 9 18 17 24 17 6 0 8 -1 6 -3z m26 -27 c3 -6
-1 -7 -9 -4 -18 7 -21 14 -7 14 6 0 13 -4 16 -10z m35 0 c0 -5 -2 -10 -4 -10
-3 0 -8 5 -11 10 -3 6 -1 10 4 10 6 0 11 -4 11 -10z m64 -18 c3 -5 -1 -9 -9
-9 -8 0 -12 4 -9 9 3 4 7 8 9 8 2 0 6 -4 9 -8z m-428 -42 c0 -12 -4 -16 -9
-11 -5 5 -6 14 -3 20 10 15 12 14 12 -9z m302 -5 c-3 -3 -9 2 -12 12 -6 14 -5
15 5 6 7 -7 10 -15 7 -18z m-338 5 c0 -5 -5 -10 -11 -10 -5 0 -7 5 -4 10 3 6
8 10 11 10 2 0 4 -4 4 -10z m1392 -312 c-7 -7 -12 -8 -12 -2 0 6 3 14 7 17 3
4 9 5 12 2 2 -3 -1 -11 -7 -17z m88 1 c0 -6 -4 -7 -10 -4 -5 3 -10 11 -10 16
0 6 5 7 10 4 6 -3 10 -11 10 -16z m100 1 c0 -5 -2 -10 -4 -10 -3 0 -8 5 -11
10 -3 6 -1 10 4 10 6 0 11 -4 11 -10z m-584 -25 c-1 -8 -8 -21 -16 -28 -10
-10 -11 -9 -4 3 5 8 9 18 10 23 3 14 4 17 8 17 2 0 3 -7 2 -15z m59 -5 c3 -6
-1 -7 -9 -4 -18 7 -21 14 -7 14 6 0 13 -4 16 -10z m62 4 c-3 -3 -12 -4 -19 -1
-8 3 -5 6 6 6 11 1 17 -2 13 -5z m-84 -31 c-3 -7 -6 -13 -8 -13 -2 0 -5 6 -8
13 -3 8 1 14 8 14 7 0 11 -6 8 -14z m54 6 c-9 -6 -15 -14 -12 -20 4 -5 1 -9
-4 -9 -6 0 -11 4 -11 8 0 12 22 32 35 32 5 0 2 -5 -8 -11z m-50 -54 c0 -8 -4
-12 -9 -9 -5 3 -6 10 -3 15 9 13 12 11 12 -6z m36 -29 c3 -8 0 -17 -7 -19 -10
-4 -12 1 -9 14 6 23 9 24 16 5z m73 1 c4 -3 -4 -4 -16 -2 -12 2 -25 7 -28 10
-3 3 4 4 16 2 12 -2 24 -6 28 -10z m-101 -37 c3 -5 -4 -6 -15 -3 -11 3 -22 9
-25 13 -3 5 4 6 15 3 11 -3 22 -9 25 -13z m75 10 c0 -5 -5 -10 -11 -10 -5 0
-7 5 -4 10 3 6 8 10 11 10 2 0 4 -4 4 -10z m-35 -28 c-3 -3 -11 0 -18 7 -9 10
-8 11 6 5 10 -3 15 -9 12 -12z m-74 -17 c5 4 9 1 9 -4 0 -6 -4 -11 -8 -11 -12
0 -32 22 -32 35 0 5 5 2 11 -8 6 -9 14 -15 20 -12z m89 1 c0 -2 -7 -7 -16 -10
-8 -3 -12 -2 -9 4 6 10 25 14 25 6z m45 -5 c-9 -8 -36 -10 -30 -2 2 4 11 8 20
8 8 0 13 -3 10 -6z"/>
<path d="M2630 4790 c-5 -9 -5 -22 0 -30 5 -8 5 -21 0 -30 -6 -11 -4 -25 7
-40 15 -22 15 -23 0 -17 -15 6 -16 3 -7 -13 6 -11 8 -20 4 -20 -3 0 -1 -7 6
-15 7 -8 16 -13 20 -10 5 3 11 1 15 -5 4 -6 12 -7 18 -3 18 11 36 12 43 2 3
-5 11 -6 17 -2 16 10 30 11 43 1 21 -16 30 17 29 106 0 84 -2 89 -23 92 -23 4
-29 -5 -12 -22 6 -6 6 -15 0 -24 -9 -13 -10 -13 -10 0 0 12 -2 12 -9 2 -7 -11
-9 -11 -14 2 -3 8 -2 18 3 21 21 13 8 21 -30 21 -28 0 -39 -4 -36 -12 3 -7 -1
-18 -9 -24 -7 -6 -12 -19 -10 -28 3 -23 -13 -42 -31 -35 -12 4 -12 8 3 20 10
8 13 12 7 9 -6 -3 -11 1 -11 9 0 8 5 12 11 9 6 -3 3 1 -6 8 -15 13 -15 15 4
27 15 9 18 10 13 0 -5 -8 -4 -10 3 -5 19 12 14 25 -9 23 -11 -1 -24 -9 -29
-17z m120 -5 c-11 -13 3 -38 24 -41 20 -3 39 29 25 43 -6 6 -5 10 3 10 10 0
13 -23 12 -91 -2 -106 -1 -99 -16 -89 -19 11 -37 12 -44 2 -3 -5 -11 -6 -17
-2 -18 11 -36 12 -43 2 -3 -5 -11 -6 -17 -2 -7 4 -16 8 -21 8 -13 0 -16 34 -5
41 6 3 5 12 -3 22 -7 9 -8 13 -2 9 15 -9 42 23 39 45 -2 9 3 22 11 29 8 6 12
14 10 18 -2 3 9 6 24 6 20 1 26 -3 20 -10z"/>
<path d="M2713 4775 c-12 -8 -20 -23 -18 -32 1 -10 -6 -27 -16 -38 -10 -11
-18 -23 -18 -27 -1 -5 -1 -9 -2 -10 -6 -21 -5 -37 1 -33 5 3 11 1 15 -5 4 -6
12 -7 18 -3 19 12 36 12 43 2 3 -6 12 -5 21 3 19 16 17 16 34 1 12 -10 14 -2
14 52 0 40 -3 61 -10 57 -20 -13 -35 -10 -50 11 -8 11 -12 24 -9 29 8 12 1 10
-23 -7z m28 -29 c11 -14 27 -23 37 -21 15 2 18 -4 18 -40 0 -36 -3 -42 -18
-40 -10 2 -20 -1 -23 -6 -4 -5 -12 -6 -18 -2 -19 12 -36 12 -43 2 -3 -6 -11
-5 -20 2 -11 9 -11 15 -3 25 6 8 8 14 4 14 -5 0 0 9 11 21 10 12 20 30 20 40
3 38 9 38 35 5z"/>
<path d="M2715 4742 c2 -11 -5 -28 -16 -37 -10 -10 -16 -21 -14 -26 3 -4 1
-10 -5 -14 -6 -4 -8 -11 -4 -16 3 -5 11 -6 17 -2 18 11 36 12 43 2 3 -5 11 -6
17 -2 7 4 17 8 22 8 6 0 10 12 10 28 0 15 -4 27 -8 26 -5 -1 -22 11 -38 27
-26 24 -28 25 -24 6z m56 -37 c3 2 5 -6 5 -20 0 -13 -3 -22 -7 -19 -4 2 -11 0
-14 -6 -5 -8 -12 -7 -22 2 -20 16 -16 16 -39 -2 -18 -14 -18 -14 -5 3 7 9 10
17 5 17 -4 0 2 10 14 23 12 13 19 28 15 33 -5 5 4 -1 18 -14 14 -12 28 -20 30
-17z"/>
<path d="M2715 4700 c-10 -11 -15 -21 -12 -21 4 -1 10 -2 15 -3 4 -1 12 -5 18
-9 7 -4 17 -1 23 7 8 10 6 17 -7 30 -18 15 -20 15 -37 -4z m39 -22 c-4 -5 -11
-5 -18 1 -7 6 -17 7 -22 3 -4 -4 -2 1 5 11 10 13 17 15 27 6 8 -6 11 -15 8
-21z"/>
<path d="M2675 4780 c-4 -6 -11 -7 -17 -4 -7 4 -8 2 -4 -5 6 -9 11 -9 22 0 14
11 18 19 10 19 -3 0 -8 -5 -11 -10z"/>
<path d="M2766 4782 c-3 -5 1 -9 9 -9 8 0 12 4 9 9 -3 4 -7 8 -9 8 -2 0 -6 -4
-9 -8z"/>
<path d="M2881 5229 c12 -7 11 -9 -1 -9 -12 0 -12 -2 -2 -9 11 -6 10 -10 -5
-15 -17 -7 -17 -8 1 -22 14 -10 16 -14 5 -14 -12 0 -12 -2 1 -9 8 -6 18 -7 22
-5 10 6 11 -10 1 -19 -3 -4 -13 -1 -21 6 -11 8 -14 8 -9 0 4 -6 3 -15 -3 -18
-8 -5 -8 -11 -1 -19 6 -7 7 -17 3 -21 -4 -5 -2 -5 5 -1 6 3 14 2 18 -3 3 -5
14 -8 24 -6 10 2 28 -5 40 -16 12 -11 21 -16 21 -11 0 5 14 8 32 8 28 -1 32 2
33 26 1 15 -2 25 -7 22 -4 -3 -8 0 -8 5 0 6 6 11 13 11 8 0 7 4 -3 10 -13 9
-13 10 0 10 13 0 13 1 0 10 -13 9 -13 10 0 10 12 0 13 2 1 9 -7 5 -9 11 -5 13
5 3 4 3 -3 2 -6 -2 -17 3 -23 11 -6 7 -19 12 -28 10 -9 -2 -21 -4 -27 -5 -5
-1 -13 -1 -17 0 -9 3 -25 7 -35 9 -3 0 1 9 10 19 15 16 14 17 -15 19 -21 0
-26 -2 -17 -8z m39 -44 c0 4 6 2 13 -4 8 -6 16 -8 19 -6 13 13 48 12 60 -2 15
-19 19 -61 5 -70 -5 -3 -4 -9 4 -13 7 -5 14 -15 15 -23 2 -16 -67 -17 -88 0
-7 6 -21 9 -30 8 -15 -3 -60 33 -45 36 13 3 22 6 40 14 13 6 15 10 6 21 -6 8
-16 11 -22 7 -6 -3 -7 -1 -3 6 4 6 0 14 -9 17 -13 5 -14 9 -4 15 7 4 19 3 26
-3 7 -6 13 -7 13 -3z"/>
<path d="M2912 5165 c20 -22 25 -34 18 -45 -5 -8 -10 -11 -10 -6 0 5 -6 3 -13
-3 -8 -6 -18 -7 -23 -3 -4 4 -3 0 4 -10 7 -9 21 -15 30 -13 9 1 23 -2 29 -8
18 -13 72 -17 80 -4 3 5 1 7 -4 4 -6 -4 -13 0 -17 8 -3 8 -2 17 3 19 10 6 8
46 -2 63 -7 11 -43 10 -55 -2 -3 -2 -11 0 -19 6 -7 6 -13 8 -13 4 0 -4 -8 -1
-17 6 -10 7 -6 0 9 -16z m47 -6 c30 14 45 7 46 -22 1 -15 -2 -30 -6 -33 -5 -2
-6 -12 -3 -22 5 -14 4 -15 -5 -2 -9 13 -11 13 -11 0 0 -13 -1 -13 -10 0 -5 8
-10 11 -10 6 0 -5 -6 -4 -12 1 -7 6 -21 9 -31 8 -9 -2 -15 1 -11 6 3 5 9 7 14
4 5 -3 13 3 19 12 7 13 5 23 -7 38 -9 11 -10 15 -3 8 8 -7 21 -9 30 -4z"/>
<path d="M2962 5152 c-10 -3 -8 -8 5 -18 17 -13 17 -14 1 -8 -10 3 -18 1 -18
-5 0 -6 0 -14 0 -18 -1 -12 30 -12 37 0 21 34 8 60 -25 49z m23 -41 c-9 -8
-36 -10 -30 -2 2 4 11 8 20 8 8 0 13 -3 10 -6z"/>
<path d="M1904 5053 c2 -10 6 -17 10 -16 15 3 16 11 2 22 -12 10 -14 9 -12 -6z"/>
<path d="M2265 4800 c-3 -6 1 -7 9 -4 18 7 21 14 7 14 -6 0 -13 -4 -16 -10z"/>
<path d="M2333 4804 c3 -4 1 -16 -5 -28 -10 -18 -9 -19 4 -9 19 16 32 4 16
-15 -12 -14 -22 -49 -11 -38 3 3 15 1 27 -5 19 -9 18 -8 -2 8 -20 17 -22 21
-9 31 12 10 13 18 3 37 -6 14 -15 25 -20 25 -5 0 -6 -3 -3 -6z"/>
<path d="M2360 4801 c0 -6 4 -13 10 -16 6 -3 7 1 4 9 -7 18 -14 21 -14 7z"/>
<path d="M2349 4632 c-14 -12 -18 -21 -11 -26 6 -3 13 -2 17 4 3 5 3 10 -1 10
-4 0 1 7 12 15 10 8 16 15 13 15 -4 0 -17 -8 -30 -18z"/>
<path d="M2240 4670 c-8 -5 -18 -6 -22 -4 -4 3 -8 1 -8 -5 0 -5 12 -8 28 -7
15 2 35 0 44 -5 10 -6 19 -5 23 2 4 6 14 8 24 5 12 -5 11 -2 -3 9 -14 11 -23
12 -33 4 -9 -8 -17 -8 -26 -1 -8 7 -18 7 -27 2z"/>
<path d="M3430 5602 c0 -5 7 -9 15 -9 8 0 12 4 9 9 -3 4 -9 8 -15 8 -5 0 -9
-4 -9 -8z"/>
<path d="M1901 5444 c0 -11 2 -24 7 -28 7 -7 8 -11 11 -38 1 -9 4 -9 11 2 6
10 4 20 -4 30 -8 8 -16 24 -19 35 -5 19 -5 19 -6 -1z"/>
<path d="M1780 5430 c6 -11 14 -20 18 -20 4 0 13 9 20 20 15 25 4 27 -14 3
-13 -17 -13 -17 -14 0 0 9 -5 17 -10 17 -7 0 -7 -6 0 -20z"/>
<path d="M1839 5433 c-10 -11 -10 -14 -1 -9 6 4 12 2 12 -3 0 -6 5 -11 11 -11
8 0 8 5 -1 15 -15 18 0 20 20 3 12 -11 12 -10 1 5 -17 21 -25 21 -42 0z"/>
<path d="M1920 5436 c0 -2 7 -9 15 -16 9 -7 15 -8 15 -2 0 5 -7 12 -15 16 -8
3 -15 4 -15 2z"/>
<path d="M1760 5400 c0 -5 5 -10 10 -10 6 0 10 5 10 10 0 6 -4 10 -10 10 -5 0
-10 -4 -10 -10z"/>
<path d="M1820 5400 c0 -5 5 -10 10 -10 6 0 10 5 10 10 0 6 -4 10 -10 10 -5 0
-10 -4 -10 -10z"/>
<path d="M1883 5396 c3 -7 0 -20 -6 -27 -10 -11 -9 -11 6 0 12 9 17 10 17 2 0
-6 -12 -16 -26 -22 -15 -5 -24 -12 -21 -16 8 -7 57 24 57 37 0 5 -5 12 -10 15
-6 4 -8 11 -5 16 4 5 1 9 -5 9 -7 0 -10 -6 -7 -14z"/>
<path d="M1854 5392 c3 -6 -2 -13 -13 -17 -23 -7 -35 -32 -20 -41 6 -3 13 -3
16 0 4 3 1 6 -6 6 -7 0 -9 5 -6 10 4 6 12 7 18 4 7 -4 9 -4 5 1 -4 4 0 13 9
20 13 9 13 14 3 20 -8 5 -11 4 -6 -3z"/>
<path d="M1790 5380 c0 -5 5 -10 10 -10 6 0 10 5 10 10 0 6 -4 10 -10 10 -5 0
-10 -4 -10 -10z"/>
<path d="M1764 5364 c21 -20 20 -28 -1 -19 -15 5 -16 4 -5 -6 10 -11 16 -10
30 5 9 11 12 16 6 12 -7 -3 -14 1 -18 9 -3 8 -10 15 -16 15 -6 0 -4 -7 4 -16z"/>
<path d="M1914 5349 c-3 -6 -1 -16 5 -22 9 -9 10 -7 5 8 -7 18 -6 18 9 6 9 -7
17 -9 17 -3 0 14 -28 23 -36 11z"/>
<path d="M1780 5320 c-8 -5 -10 -10 -5 -10 6 0 17 5 25 10 8 5 11 10 5 10 -5
0 -17 -5 -25 -10z"/>
<path d="M1794 5295 c-5 -11 -10 -13 -19 -5 -10 8 -15 8 -21 -1 -4 -7 -3 -9 4
-5 6 3 15 -2 21 -11 6 -11 11 -13 11 -5 0 7 4 10 10 7 6 -3 7 1 4 10 -5 11 -2
14 12 8 12 -4 15 -3 10 5 -10 17 -26 15 -32 -3z"/>
<path d="M1910 5300 c0 -6 4 -9 9 -5 5 3 12 -5 14 -17 5 -22 5 -21 4 1 -2 24
-27 44 -27 21z"/>
<path d="M1832 5281 c-11 -6 -10 -10 4 -15 9 -4 22 -2 28 4 8 8 6 9 -8 4 -13
-5 -17 -4 -12 4 8 14 6 15 -12 3z"/>
<path d="M1755 5260 c-3 -5 -1 -10 4 -10 6 0 11 5 11 10 0 6 -2 10 -4 10 -3 0
-8 -4 -11 -10z"/>
<path d="M1939 5205 c-1 -3 -2 -11 -3 -17 0 -7 -10 -13 -21 -13 -12 0 -20 -7
-20 -18 0 -10 -6 -22 -14 -26 -8 -5 -10 -15 -6 -22 4 -8 -4 0 -19 16 -30 35
-33 50 -8 41 10 -4 7 1 -8 13 -24 19 -46 19 -35 0 4 -5 -6 -22 -22 -37 l-28
-28 28 -23 c21 -17 27 -19 27 -7 0 8 5 18 11 22 7 4 9 0 5 -14 -4 -11 -2 -23
4 -27 6 -3 7 -11 4 -17 -4 -7 -2 -8 5 -4 9 6 9 11 1 21 -19 22 -1 39 20 20 12
-11 20 -13 25 -6 3 6 3 11 -1 11 -4 0 0 8 9 18 14 16 17 21 17 39 0 3 8 -1 18
-10 17 -15 18 -14 18 28 0 39 -3 56 -7 40z m-115 -36 c-3 -5 10 -28 28 -52
l33 -42 -29 23 c-26 20 -31 21 -46 7 -12 -11 -19 -12 -28 -3 -8 8 -5 18 13 40
14 17 22 35 19 40 -4 7 -2 8 5 4 6 -4 9 -12 5 -17z m113 -14 c0 -8 -4 -12 -9
-9 -5 3 -6 10 -3 15 9 13 12 11 12 -6z"/>
<path d="M1796 5131 c-10 -11 -13 -22 -8 -25 5 -3 15 1 22 9 7 8 17 12 24 8 6
-4 5 1 -3 10 -17 21 -14 21 -35 -2z m24 5 c0 -2 -8 -10 -17 -17 -16 -13 -17
-12 -4 4 13 16 21 21 21 13z"/>
<path d="M1935 5101 c-3 -5 -1 -12 5 -16 6 -4 7 -11 4 -17 -4 -7 -2 -8 5 -4 8
6 9 12 2 20 -6 7 -8 16 -4 19 3 4 4 7 0 7 -3 0 -8 -4 -12 -9z"/>
<path d="M2879 4572 c-1 -4 0 -11 1 -17 1 -5 4 -19 6 -29 2 -11 -5 -25 -16
-33 -18 -13 -19 -16 -5 -30 9 -8 13 -23 10 -33 -5 -15 0 -17 35 -16 23 1 44
-2 47 -7 4 -6 1 -7 -7 -2 -9 5 -11 4 -6 -4 6 -9 14 -5 30 11 34 34 48 65 31
65 -8 0 -13 -3 -12 -6 1 -3 -4 -16 -11 -29 -13 -22 -32 -22 -32 1 0 7 4 6 11
-3 8 -12 10 -12 7 4 -2 14 -12 20 -36 21 -26 1 -31 -2 -27 -16 3 -9 0 -21 -6
-25 -8 -5 -9 -3 -5 5 5 7 1 20 -9 31 -12 14 -13 20 -4 26 8 5 10 3 4 -6 -5 -8
-3 -11 6 -8 7 2 14 21 15 41 1 21 -2 35 -7 32 -5 -4 -6 1 -2 10 4 13 8 14 14
4 4 -8 11 -10 15 -6 4 4 5 9 2 12 -9 9 -48 14 -49 7z m61 -132 c0 -5 -4 -10
-10 -10 -5 0 -10 5 -10 10 0 6 5 10 10 10 6 0 10 -4 10 -10z"/>
<path d="M2960 4569 c0 -5 5 -7 10 -4 6 3 10 1 10 -4 0 -6 -4 -11 -9 -11 -13
0 -7 -83 7 -88 8 -2 10 2 5 14 -5 13 -3 16 9 11 9 -3 25 1 36 8 10 8 22 12 24
9 3 -3 6 6 6 20 0 20 -5 23 -25 21 -15 -1 -32 5 -41 16 -18 21 -32 25 -32 8z
m34 -35 c13 -5 14 -9 5 -20 -6 -8 -17 -14 -23 -14 -6 0 -4 5 4 10 13 9 13 11
0 20 -17 11 -10 13 14 4z m46 -7 c0 -2 -10 -12 -21 -23 -22 -19 -22 -19 -8 4
12 19 29 30 29 19z"/>
<path d="M3030 4565 c7 -8 16 -12 21 -9 16 9 10 20 -12 21 -17 2 -18 -1 -9
-12z"/>
<path d="M1624 4562 c4 -3 14 -7 22 -8 9 -1 13 0 10 4 -4 3 -14 7 -22 8 -9 1
-13 0 -10 -4z"/>
<path d="M1713 4535 c0 -8 4 -12 9 -9 5 3 6 10 3 15 -9 13 -12 11 -12 -6z"/>
<path d="M1550 4521 c0 -6 4 -13 10 -16 6 -3 7 1 4 9 -7 18 -14 21 -14 7z"/>
<path d="M1610 4521 c0 -6 4 -12 8 -15 5 -3 9 1 9 9 0 8 -4 15 -9 15 -4 0 -8
-4 -8 -9z"/>
<path d="M2918 4518 c14 -14 16 -32 4 -24 -5 3 -9 -1 -9 -8 0 -7 10 -12 21
-12 13 1 20 8 18 16 -5 20 -22 40 -35 40 -7 0 -7 -4 1 -12z"/>
<path d="M3029 4479 c-15 -29 -6 -33 21 -11 20 16 21 20 7 25 -11 4 -21 -1
-28 -14z"/>
<path d="M1539 4473 c-13 -17 -13 -17 6 -3 11 8 22 16 24 17 2 2 0 3 -6 3 -6
0 -17 -8 -24 -17z"/>
<path d="M1610 4480 c0 -5 5 -10 11 -10 5 0 7 5 4 10 -3 6 -8 10 -11 10 -2 0
-4 -4 -4 -10z"/>
<path d="M1674 4476 c1 -8 5 -18 8 -22 4 -3 5 1 4 10 -1 8 -5 18 -8 22 -4 3
-5 -1 -4 -10z"/>
<path d="M1696 4442 c-3 -5 1 -9 9 -9 8 0 12 4 9 9 -3 4 -7 8 -9 8 -2 0 -6 -4
-9 -8z"/>
<path d="M1540 4400 c8 -5 20 -10 25 -10 6 0 3 5 -5 10 -8 5 -19 10 -25 10 -5
0 -3 -5 5 -10z"/>
<path d="M1655 4400 c3 -5 8 -10 11 -10 2 0 4 5 4 10 0 6 -5 10 -11 10 -5 0
-7 -4 -4 -10z"/>
<path d="M1690 4401 c0 -6 4 -13 10 -16 6 -3 7 1 4 9 -7 18 -14 21 -14 7z"/>
<path d="M1629 4368 c-1 -10 -3 -22 -4 -28 -1 -5 -3 -13 -4 -16 0 -4 -7 -1
-15 5 -11 9 -16 9 -22 -1 -20 -32 -3 -55 31 -42 22 9 18 -13 -6 -29 -15 -11
-17 -16 -7 -20 10 -4 10 -6 -1 -6 -11 -1 -10 -5 5 -16 11 -9 13 -13 4 -10 -9
3 -21 -4 -29 -17 -7 -13 -10 -20 -6 -16 5 4 15 2 23 -5 10 -7 13 -8 9 -1 -10
17 16 35 33 24 10 -6 22 -2 37 12 18 16 26 19 35 10 8 -8 8 -16 -2 -29 -13
-17 -13 -17 5 -1 22 20 26 66 8 93 -17 25 -17 39 0 32 16 -6 16 19 0 48 -9 16
-14 18 -24 8 -17 -17 -35 -17 -21 0 8 10 6 13 -9 13 -10 0 -19 -6 -19 -13 0
-7 5 -13 11 -13 5 0 7 -5 3 -12 -5 -8 -12 -2 -20 17 -9 21 -14 24 -15 13z m73
-59 c-28 -25 -34 -51 -7 -29 14 12 27 -9 30 -47 2 -18 -1 -21 -12 -11 -10 8
-19 6 -36 -10 -21 -20 -25 -20 -44 -7 -24 17 -24 42 0 60 15 11 15 14 3 24
-17 14 -10 45 8 38 7 -3 23 3 36 13 19 14 28 16 38 7 12 -9 9 -16 -16 -38z
m-97 11 c3 -5 1 -10 -4 -10 -6 0 -11 5 -11 10 0 6 2 10 4 10 3 0 8 -4 11 -10z"/>
<path d="M1675 4327 c-16 -12 -31 -21 -32 -19 -2 1 -6 2 -10 2 -3 0 2 -9 11
-19 17 -19 17 -20 -2 -30 -23 -12 -23 -39 0 -52 12 -7 23 -1 43 23 15 18 24
28 21 21 -4 -6 -2 -14 3 -17 5 -4 8 2 7 11 -2 10 -9 18 -17 18 -37 1 -40 17
-8 44 39 33 26 48 -16 18z m35 9 c0 -3 -13 -14 -29 -26 -21 -14 -32 -17 -37
-9 -4 7 -3 9 2 6 5 -3 21 3 34 14 27 20 30 22 30 15z m-34 -89 c-3 -23 -17
-36 -32 -30 -13 5 -13 7 -2 14 10 7 10 9 -1 9 -11 0 -9 4 4 14 22 16 34 13 31
-7z"/>
<path d="M1659 4258 c-5 -18 -6 -38 -1 -34 7 8 12 36 6 36 -2 0 -4 -1 -5 -2z"/>
<path d="M2574 4096 c1 -8 5 -18 8 -22 4 -3 5 1 4 10 -1 8 -5 18 -8 22 -4 3
-5 -1 -4 -10z"/>
<path d="M3160 4095 c-7 -9 -11 -17 -9 -20 3 -2 10 5 17 15 14 24 10 26 -8 5z"/>
<path d="M3231 4093 c7 -12 15 -20 18 -17 3 2 -3 12 -13 22 -17 16 -18 16 -5
-5z"/>
<path d="M3193 4050 c1 -11 5 -20 9 -20 3 0 6 9 5 20 -1 11 -5 20 -9 20 -3 0
-6 -9 -5 -20z"/>
<path d="M3134 4046 c1 -8 5 -18 8 -22 4 -3 5 1 4 10 -1 8 -5 18 -8 22 -4 3
-5 -1 -4 -10z"/>
<path d="M3259 4058 c-5 -18 -6 -38 -1 -34 7 8 12 36 6 36 -2 0 -4 -1 -5 -2z"/>
<path d="M2573 4025 c0 -8 4 -12 9 -9 5 3 6 10 3 15 -9 13 -12 11 -12 -6z"/>
<path d="M2536 4022 c-3 -5 1 -9 9 -9 8 0 12 4 9 9 -3 4 -7 8 -9 8 -2 0 -6 -4
-9 -8z"/>
<path d="M3079 4013 c-13 -16 -12 -17 4 -4 9 7 17 15 17 17 0 8 -8 3 -21 -13z"/>
<path d="M2494 3996 c1 -8 5 -18 8 -22 4 -3 5 1 4 10 -1 8 -5 18 -8 22 -4 3
-5 -1 -4 -10z"/>
<path d="M3098 3992 c-11 -15 -11 -15 2 -5 19 14 42 12 66 -7 18 -14 18 -14 2
6 -22 25 -53 28 -70 6z"/>
<path d="M3233 3986 l-18 -21 24 20 c13 11 25 19 28 17 3 -2 7 -2 9 1 2 2 -3
4 -11 4 -8 0 -23 -10 -32 -21z"/>
<path d="M2576 3982 c-2 -4 -1 -14 4 -22 7 -11 9 -9 7 8 -1 24 -3 26 -11 14z"/>
<path d="M3133 3967 c0 -8 6 -14 14 -14 9 0 10 4 2 14 -6 7 -12 13 -14 13 -1
0 -2 -6 -2 -13z"/>
<path d="M3255 3969 c-4 -6 -5 -12 -2 -15 2 -3 7 2 10 11 7 17 1 20 -8 4z"/>
<path d="M3178 3950 c6 -8 12 -23 12 -34 0 -24 13 -13 17 16 2 12 0 19 -3 15
-4 -4 -14 -1 -23 5 -13 10 -14 10 -3 -2z"/>
<path d="M3077 3943 c-3 -5 -1 -17 3 -27 5 -16 8 -17 15 -6 5 9 4 15 -3 18 -7
2 -10 8 -6 13 3 5 3 9 0 9 -3 0 -7 -3 -9 -7z"/>
<path d="M3104 3922 c1 -30 26 -71 26 -44 0 7 5 12 11 12 5 0 8 -4 5 -9 -3 -5
2 -15 11 -22 14 -12 15 -11 9 9 -5 15 -3 22 5 22 7 0 9 -3 6 -7 -10 -10 14
-34 27 -26 6 4 5 -1 -3 -10 -20 -25 -8 -31 14 -7 10 11 13 20 7 20 -7 0 -12 6
-12 14 0 8 -8 17 -19 21 -10 3 -18 13 -17 23 1 13 -7 17 -29 17 -16 0 -33 4
-36 9 -4 5 -6 -5 -5 -22z m58 1 c-6 -3 -10 -8 -8 -11 2 -4 -6 -8 -19 -8 -18
-1 -21 1 -13 10 7 7 21 12 32 13 12 1 15 -1 8 -4z"/>
<path d="M2081 3921 c-10 -6 -10 -10 -2 -16 9 -5 9 -10 1 -20 -8 -10 -8 -15 1
-21 8 -5 9 -3 4 6 -6 9 -4 11 5 5 9 -6 11 -4 5 5 -6 9 -4 11 4 5 9 -5 10 -10
2 -18 -16 -16 -14 -32 2 -18 8 6 18 7 22 3 5 -4 6 0 3 9 -4 9 -1 16 7 16 7 0
11 -6 8 -13 -2 -6 4 -18 15 -25 10 -8 19 -22 19 -32 0 -15 -2 -16 -17 -2 -26
24 -32 18 -13 -12 10 -15 14 -24 8 -21 -6 3 -10 -4 -10 -17 0 -14 5 -21 13
-17 7 2 11 7 8 10 -3 2 0 14 6 26 19 34 18 49 -5 76 -12 13 -15 19 -5 12 9 -8
19 -9 22 -4 6 10 -13 21 -53 28 -34 7 -45 15 -31 24 7 4 8 10 3 13 -5 3 -15 2
-22 -2z"/>
<path d="M2013 3878 c-19 -21 -20 -24 -5 -38 14 -13 15 -12 9 5 -6 16 -3 15
14 -5 11 -14 17 -19 13 -11 -11 22 -13 61 -3 61 9 0 11 -12 12 -58 0 -12 5
-21 11 -19 6 2 11 12 11 23 0 21 -23 64 -34 64 -4 0 -17 -10 -28 -22z"/>
<path d="M2106 3841 c-4 -6 -12 -8 -18 -5 -6 4 -8 2 -5 -3 4 -6 -3 -19 -14
-29 -21 -19 -53 -29 -43 -13 3 5 10 7 15 4 5 -4 9 -1 9 4 0 21 -19 11 -41 -21
-12 -18 -16 -27 -9 -21 11 10 17 10 29 0 10 -8 12 -8 8 -1 -9 16 21 26 41 14
14 -8 14 -10 2 -10 -12 0 -11 -3 3 -11 13 -7 22 -7 31 0 7 6 16 8 19 5 8 -8 3
39 -6 53 -11 18 12 26 31 12 12 -10 11 -7 -3 9 -12 15 -21 19 -23 12 -3 -9 -6
-9 -12 0 -5 9 -9 9 -14 1z m11 -18 c-4 -3 -2 -12 5 -20 9 -11 8 -13 -2 -11 -7
2 -15 -3 -18 -11 -3 -8 0 -11 7 -7 7 5 9 1 5 -8 -6 -16 -25 -23 -23 -8 3 19
-2 33 -11 27 -18 -11 -11 4 12 25 19 18 41 30 25 13z"/>
<path d="M3105 3761 c13 -14 17 -14 30 0 14 14 13 16 -15 16 -28 0 -29 -2 -15
-16z"/>
<path d="M3315 3709 c-4 -6 -5 -12 -2 -15 2 -3 7 2 10 11 7 17 1 20 -8 4z"/>
<path d="M3486 3707 c3 -10 9 -15 12 -12 3 3 0 11 -7 18 -10 9 -11 8 -5 -6z"/>
<path d="M3333 3691 c-3 -9 -15 -24 -27 -35 -21 -18 -20 -18 8 -1 l30 18 27
-33 27 -32 36 36 c24 23 42 33 54 30 14 -5 15 -4 2 5 -9 6 -18 7 -24 1 -15
-15 -33 -12 -40 6 -4 12 -1 14 13 9 11 -3 22 -2 25 3 10 16 -43 10 -56 -6 -8
-10 -9 -13 -2 -9 18 10 25 -21 11 -43 -15 -25 -19 -25 -35 0 -9 15 -10 26 -2
40 12 23 13 22 -18 25 -14 1 -26 -4 -29 -14z m40 -7 c-6 -16 -25 -14 -30 2 -2
5 6 10 16 11 14 1 18 -3 14 -13z"/>
<path d="M3390 3660 c0 -5 5 -10 10 -10 6 0 10 5 10 10 0 6 -4 10 -10 10 -5 0
-10 -4 -10 -10z"/>
<path d="M3470 3649 c0 -5 -3 -8 -7 -6 -5 3 -13 -1 -19 -7 -9 -10 -5 -13 20
-13 17 0 26 2 19 4 -7 3 -9 11 -6 19 3 8 2 14 -1 14 -3 0 -6 -5 -6 -11z"/>
<path d="M3320 3640 c-8 -5 -10 -10 -5 -10 6 0 17 5 25 10 8 5 11 10 5 10 -5
0 -17 -5 -25 -10z"/>
<path d="M3329 3613 c-8 -9 -9 -14 -2 -10 6 4 13 2 15 -5 3 -8 9 -8 24 1 14
10 15 11 2 7 -10 -3 -20 -1 -23 4 -3 5 3 11 12 13 15 4 15 5 2 6 -9 0 -23 -7
-30 -16z"/>
<path d="M3450 3605 c0 -8 29 -12 39 -5 9 5 4 8 -13 8 -14 0 -26 -2 -26 -3z"/>
<path d="M3296 3583 c-6 -14 -5 -15 5 -6 7 7 10 15 7 18 -3 3 -9 -2 -12 -12z"/>
<path d="M3370 3585 c-17 -10 -20 -14 -9 -15 9 0 22 7 29 15 15 18 12 18 -20
0z"/>
<path d="M3319 3584 c0 -5 -2 -17 -4 -26 -2 -10 1 -18 6 -18 5 0 9 5 9 11 0 5
6 7 13 3 7 -5 7 -1 -3 12 -8 10 -16 21 -17 23 -2 2 -3 0 -4 -5z"/>
<path d="M3424 3571 c13 -15 14 -20 4 -24 -8 -4 -7 -6 5 -6 9 -1 17 2 17 7 -1
11 -26 42 -35 42 -5 0 0 -9 9 -19z"/>
<path d="M3445 3580 c3 -5 11 -10 16 -10 6 0 7 5 4 10 -3 6 -11 10 -16 10 -6
0 -7 -4 -4 -10z"/>
<path d="M3489 3580 c-1 -5 -2 -14 -3 -20 -2 -15 -45 -42 -56 -35 -6 3 -10 1
-10 -4 0 -15 21 -13 44 4 10 8 22 13 25 11 4 -3 7 9 7 25 2 27 -4 42 -7 19z"/>
<path d="M3382 3550 c-7 -11 -10 -20 -6 -20 7 0 34 27 34 34 0 13 -16 5 -28
-14z"/>
<path d="M3347 3534 c-4 -4 -16 -7 -28 -8 -12 0 -24 -7 -25 -14 -1 -7 0 -8 3
-2 2 5 9 10 14 10 6 0 7 -5 3 -11 -3 -6 5 -3 20 6 14 10 26 19 26 21 0 6 -6 5
-13 -2z"/>
<path d="M3397 3525 c-4 -8 -3 -16 1 -19 4 -3 9 4 9 15 2 23 -3 25 -10 4z"/>
<path d="M3350 3510 c-12 -7 -10 -9 7 -7 12 0 19 5 17 9 -6 10 -6 10 -24 -2z"/>
<path d="M3466 3511 c-4 -5 3 -7 14 -4 23 6 26 13 6 13 -8 0 -17 -4 -20 -9z"/>
<path d="M3503 3183 c2 -304 3 -318 21 -318 11 0 21 -7 23 -15 3 -9 1 -11 -4
-5 -4 6 -16 11 -25 11 -19 2 -19 2 -20 -368 0 -59 -4 -95 -10 -92 -5 3 -4 -4
4 -15 11 -18 11 -23 -2 -31 -8 -5 -15 -18 -16 -28 -1 -25 -43 -81 -58 -78 -6
2 -8 1 -3 -1 4 -3 5 -9 1 -14 -3 -5 -2 -9 3 -9 13 1 68 89 65 105 -2 8 1 15 6
15 15 0 8 -104 -8 -112 -13 -6 -12 -7 2 -7 18 -1 18 -25 1 -42 -7 -7 -12 -5
-17 6 -5 13 -2 16 11 11 14 -6 15 -4 6 5 -15 15 -32 4 -28 -19 1 -10 11 -17
23 -16 12 0 19 -3 16 -8 -8 -13 -24 -9 -55 13 -16 11 -27 25 -24 30 4 5 1 9
-5 9 -8 0 -9 -7 -5 -17 10 -23 10 -42 1 -68 -7 -18 -6 -18 12 3 27 30 55 20
40 -14 -11 -24 -28 -33 -28 -14 0 6 5 10 10 10 6 0 10 7 10 17 0 14 -2 14 -20
-2 -12 -10 -18 -25 -15 -32 2 -8 0 -11 -5 -8 -6 3 -10 -1 -10 -10 0 -9 4 -14
9 -11 5 3 11 -1 15 -9 7 -19 -3 -47 -15 -39 -5 3 -9 -2 -9 -11 0 -9 4 -14 8
-11 4 2 8 -4 8 -14 0 -10 -4 -16 -8 -14 -4 3 -8 -2 -8 -10 0 -9 6 -15 13 -13
7 1 12 -8 12 -23 0 -16 -5 -24 -14 -22 -10 2 -12 -4 -7 -25 5 -23 4 -25 -5
-10 -12 21 -4 51 11 42 5 -3 10 3 10 14 0 12 -6 20 -12 18 -9 -1 -12 8 -11 27
l2 29 -24 -23 -24 -22 -26 26 c-31 31 -30 42 10 64 17 9 33 21 36 25 3 4 6 -6
6 -23 0 -17 -3 -26 -7 -20 -5 8 -9 6 -14 -5 -3 -9 -6 -18 -6 -19 0 -1 9 -2 20
-3 19 -2 22 4 22 47 0 47 -2 51 -22 45 -11 -3 -20 -2 -20 3 0 6 11 9 25 8 21
-3 24 0 19 19 -3 13 -1 26 5 29 6 4 11 13 11 19 -1 7 -8 3 -18 -8 -19 -22 -52
-32 -52 -15 0 6 4 9 8 6 5 -3 19 2 31 10 21 15 21 17 6 34 -15 16 -15 18 1 24
9 4 14 9 11 13 -9 8 -38 -17 -31 -28 3 -5 -2 -9 -11 -9 -9 0 -13 -5 -10 -10 5
-8 11 -7 21 1 8 7 14 7 14 1 0 -17 -25 -21 -43 -7 -17 12 -16 15 8 39 29 29
23 36 -8 8 -18 -15 -20 -15 -14 0 6 16 -20 48 -39 48 -5 0 1 -8 14 -18 22 -17
22 -18 5 -42 -12 -16 -18 -44 -18 -78 -1 -46 1 -51 12 -36 9 13 10 20 2 25 -7
4 -5 8 5 12 22 9 20 28 -1 21 -15 -5 -16 -4 -3 5 23 16 30 13 30 -11 -1 -33 5
-61 14 -76 6 -10 -5 -17 -19 -9 -2 1 -10 -6 -18 -17 -12 -16 -14 -16 -14 -2 0
14 9 20 28 18 4 -1 7 10 7 23 0 30 -14 33 -23 5 -3 -11 -10 -20 -14 -20 -4 0
-7 -20 -7 -44 1 -24 4 -42 7 -40 4 2 9 -3 12 -11 4 -8 1 -12 -7 -9 -20 8 -16
-203 4 -216 24 -15 34 -12 19 7 -8 9 -9 14 -2 10 6 -4 13 -4 16 0 2 5 2 2 1
-4 -2 -9 10 -13 37 -13 29 0 38 -4 34 -12 -4 -7 1 -4 9 6 9 11 16 23 16 28 0
4 7 8 15 8 9 0 12 6 9 15 -4 8 -2 15 4 15 14 0 8 -33 -6 -38 -7 -2 -9 -9 -6
-14 4 -7 2 -8 -4 -4 -7 4 -12 2 -12 -3 0 -17 20 -13 38 7 10 9 14 13 10 8 -13
-16 -9 -26 7 -20 8 4 15 1 15 -5 0 -11 -4 -12 -52 -15 -37 -1 -66 -41 -49 -67
7 -12 8 -19 1 -19 -6 0 -13 7 -16 15 -4 8 -11 12 -17 8 -19 -11 -48 -11 -44 1
3 6 10 10 17 8 18 -4 60 38 53 54 -3 8 -10 14 -15 14 -7 0 -6 -5 1 -14 9 -11
6 -13 -14 -13 -25 0 -34 11 -15 20 6 3 5 4 -2 3 -7 -2 -12 -12 -11 -23 2 -16
-3 -19 -28 -18 -27 2 -28 1 -13 -16 14 -16 14 -20 -1 -46 l-17 -28 22 25 c15
17 20 19 16 8 -3 -10 -1 -18 4 -18 6 0 10 7 10 15 0 18 11 19 29 3 11 -11 12
-10 6 1 -5 9 -3 12 5 9 8 -2 14 -14 15 -26 2 -26 -19 -49 -30 -32 -3 5 -1 10
4 10 6 0 11 5 11 11 0 5 -4 8 -9 5 -5 -4 -11 -3 -14 1 -2 5 -2 2 -1 -5 3 -8
-4 -10 -20 -6 -19 4 -27 0 -36 -18 -10 -21 -10 -21 3 -5 8 9 20 17 28 17 11 0
11 -2 -1 -11 -12 -8 -11 -9 6 -4 13 3 26 0 34 -9 10 -13 7 -15 -24 -11 -19 3
-37 1 -40 -4 -8 -12 15 -28 36 -28 14 0 15 3 7 14 -15 18 1 17 28 -2 18 -13
22 -13 26 0 4 9 1 12 -7 9 -7 -3 -13 2 -13 10 0 9 8 14 20 13 11 -1 21 4 23
11 1 7 0 8 -3 2 -9 -19 -20 -10 -20 15 0 24 11 34 20 18 2 -5 2 -2 0 5 -1 8 3
12 9 9 7 -2 12 -12 10 -21 -3 -14 1 -13 19 5 17 17 19 23 8 30 -8 5 -22 6 -32
3 -24 -7 -35 25 -14 41 9 7 14 15 10 18 -3 4 -2 7 4 7 5 0 18 -9 28 -20 10
-11 24 -20 32 -20 17 0 17 -26 1 -34 -10 -5 -10 -7 0 -12 20 -10 14 -24 -10
-21 -15 1 -23 -3 -23 -13 0 -8 7 -15 15 -16 9 0 10 1 3 3 -7 3 -13 9 -13 15 0
5 7 7 16 4 9 -3 18 -6 20 -6 10 0 3 -23 -11 -36 -8 -9 -15 -20 -15 -27 0 -6 7
-2 16 9 13 16 15 16 10 2 -3 -10 -2 -18 2 -18 4 0 8 -48 7 -107 0 -101 1 -108
20 -109 11 0 26 4 33 9 8 6 12 5 12 -4 0 -8 6 -5 15 7 14 18 16 18 29 1 12
-16 14 -16 20 -2 4 11 2 14 -7 9 -6 -4 -9 -4 -5 1 4 4 3 14 -3 21 -7 9 -6 15
3 20 21 13 39 13 31 1 -4 -7 2 -5 12 3 15 12 17 12 10 1 -6 -10 -4 -12 5 -6 9
6 11 4 5 -5 -5 -9 -4 -11 4 -6 6 4 8 12 5 18 -4 6 -3 8 3 5 5 -3 9 3 8 14 -1
12 -17 33 -36 47 -22 17 -29 20 -19 7 12 -15 12 -17 1 -10 -9 5 -12 4 -7 -3 3
-6 1 -14 -5 -18 -8 -5 -9 -3 -4 7 7 11 5 11 -10 -1 -17 -13 -18 -13 -10 0 8
13 7 13 -10 0 -17 -13 -18 -13 -10 0 8 13 7 13 -10 0 -15 -12 -17 -12 -10 -1
6 10 4 12 -5 6 -9 -6 -11 -4 -5 5 5 9 4 11 -4 6 -6 -4 -8 -12 -5 -18 5 -7 2
-8 -7 -3 -12 8 -12 6 0 -8 12 -15 11 -20 -4 -37 -10 -11 -22 -20 -28 -20 -5 0
1 8 14 19 20 16 22 21 10 35 -11 13 -16 14 -22 4 -6 -9 -9 -9 -9 -1 0 6 5 15
11 19 8 4 7 9 -2 15 -10 6 -7 8 8 6 12 0 19 -6 15 -12 -3 -5 2 -4 11 4 13 10
14 18 6 32 -5 10 -15 18 -22 16 -7 -1 -11 4 -9 11 1 8 -2 11 -9 6 -7 -4 -9 -3
-6 4 8 11 25 11 45 -1 7 -5 12 -3 12 5 0 8 3 9 8 3 11 -15 32 -17 32 -3 0 7
14 -7 31 -30 17 -23 36 -42 42 -42 6 0 3 6 -8 13 -12 9 -15 19 -10 28 5 8 5
11 0 7 -9 -8 -35 9 -35 22 0 4 19 7 42 6 34 -2 42 -6 45 -24 1 -12 -2 -22 -8
-22 -6 0 -7 -5 -2 -12 4 -7 8 -40 9 -73 1 -33 2 -65 3 -71 2 -17 648 -19 669
-2 12 10 14 10 8 1 -4 -7 -2 -13 3 -13 10 0 15 14 12 33 -1 5 3 6 8 2 6 -3 8
-11 5 -18 -2 -7 4 -13 16 -14 12 -1 18 2 14 9 -5 7 -2 8 7 2 8 -5 42 -9 77
-10 62 -1 62 -1 45 19 -10 11 -13 17 -7 14 7 -4 14 3 16 18 3 14 1 25 -5 25
-6 0 -2 7 9 16 10 8 13 13 7 9 -8 -4 -13 0 -13 10 0 10 5 13 13 9 8 -5 7 -2
-2 9 -8 10 -11 20 -7 24 3 3 -2 15 -11 26 -10 11 -12 17 -5 13 7 -4 12 -2 12
4 0 7 7 9 16 6 8 -3 13 -2 10 2 -10 16 79 10 99 -6 19 -16 19 -16 5 1 -13 18
-12 19 15 16 17 -2 36 -8 44 -14 11 -7 13 -7 7 3 -5 8 0 12 14 12 17 0 19 5
15 29 -4 22 0 30 18 39 18 10 18 11 3 9 -13 -1 -20 5 -22 21 -3 16 0 21 8 16
7 -4 8 -3 4 5 -18 29 -16 58 7 70 20 10 20 11 1 6 -14 -4 -21 0 -21 9 0 12 20
15 106 14 l106 0 3 47 c2 37 0 45 -10 39 -10 -6 -10 -5 -1 7 6 8 12 46 13 84
3 198 6 241 14 254 6 9 5 12 -1 8 -5 -3 -10 0 -10 8 0 8 4 12 9 9 4 -3 8 -1 8
5 0 5 -4 13 -10 16 -16 10 -12 25 8 26 14 0 14 2 2 7 -8 4 -16 21 -16 40 -1
32 10 44 19 20 2 -7 8 -10 13 -5 4 4 -2 14 -14 23 -12 8 -22 20 -22 26 0 7 6
6 15 -2 8 -7 15 -9 15 -4 0 5 5 2 11 -6 7 -10 9 -11 7 -2 -2 8 -7 13 -12 12
-12 -2 -34 32 -31 49 2 9 4 20 4 26 1 5 8 -1 17 -13 8 -12 20 -20 25 -16 6 3
3 12 -8 21 -17 13 -16 13 4 4 16 -8 22 -7 27 5 3 9 11 12 18 8 8 -5 9 -2 5 9
-8 22 -5 21 16 -3 17 -20 16 -20 -7 -16 -27 5 -44 -19 -20 -28 8 -3 14 -1 14
5 0 6 4 8 9 5 5 -4 28 -7 50 -8 23 -1 41 -5 41 -10 0 -4 5 -8 10 -8 16 0 6 24
-13 32 -11 5 -15 13 -11 20 5 8 2 9 -9 5 -10 -3 -17 -2 -17 4 0 6 8 9 18 7 9
-2 16 -10 14 -16 -1 -7 4 -12 11 -12 9 0 14 12 15 30 0 17 -4 30 -9 30 -5 0
-9 5 -9 11 0 5 5 7 10 4 6 -3 10 1 10 9 0 9 -3 16 -8 16 -4 0 -13 9 -20 21 -8
12 -9 18 -4 15 6 -3 12 -3 15 1 2 5 2 3 1 -4 -2 -7 1 -15 6 -18 5 -3 9 13 8
37 -3 154 5 498 12 498 5 0 10 -5 12 -11 3 -8 10 -6 21 5 15 16 21 14 18 -6
-1 -10 41 0 53 12 16 16 30 12 16 -5 -9 -10 -9 -15 -1 -15 6 0 11 5 11 11 0 6
5 7 13 2 13 -8 60 -12 52 -4 -3 2 1 11 8 19 8 11 4 10 -16 -3 -15 -10 -30 -15
-33 -12 -4 3 7 14 22 24 22 13 29 26 30 50 0 19 -4 30 -9 26 -6 -4 -8 0 -4 10
9 22 15 44 10 34 -3 -4 -9 -4 -14 -1 -6 3 -4 16 6 30 8 13 11 24 5 24 -5 0
-10 -5 -10 -11 0 -8 -5 -7 -16 1 -12 11 -18 10 -31 -3 -15 -14 -18 -14 -41 1
-23 15 -25 15 -43 -7 -11 -13 -19 -18 -19 -12 0 5 -10 15 -21 22 -15 8 -19 8
-15 0 4 -6 2 -11 -4 -11 -7 0 -10 6 -8 12 3 9 35 13 105 13 56 0 104 3 107 6
3 3 6 26 7 52 2 30 6 44 13 40 6 -4 5 1 -2 10 -8 9 -13 26 -12 39 1 13 2 35 1
51 l-1 27 -330 0 -330 0 0 -116 c0 -96 2 -115 14 -111 8 3 20 0 26 -8 13 -16
4 -55 -12 -55 -6 0 -6 6 2 15 16 19 6 47 -15 39 -8 -3 -12 -10 -9 -15 3 -5 11
-7 17 -3 7 3 3 -2 -8 -11 -14 -12 -16 -19 -8 -22 9 -3 10 -10 3 -23 -7 -13 -7
-21 0 -25 5 -3 10 -1 10 4 0 6 6 11 13 11 6 -1 1 -10 -13 -22 -16 -14 -21 -22
-12 -25 6 -3 9 -9 6 -15 -10 -16 -13 -88 -3 -88 5 0 9 -5 9 -11 0 -5 -4 -8 -9
-5 -4 3 -8 -19 -7 -49 0 -30 5 -55 9 -55 5 0 5 -6 0 -12 -10 -16 -10 -21 -12
-192 -1 -130 -2 -138 -18 -125 -17 13 -17 13 0 -7 20 -25 24 -123 5 -143 -7
-8 -8 -11 -2 -8 13 8 14 -100 1 -120 -5 -8 -3 -13 4 -13 6 0 3 -8 -8 -17 -10
-10 -13 -14 -6 -9 19 13 28 -1 13 -19 -10 -12 -10 -15 1 -15 12 0 12 -2 0 -9
-11 -7 -11 -9 0 -13 8 -3 10 -9 6 -14 -4 -5 -12 -2 -17 6 -9 14 -15 6 -11 -14
1 -5 -10 -1 -25 9 -22 14 -26 15 -21 2 4 -10 0 -14 -11 -12 -9 2 -20 4 -24 4
-4 1 -6 10 -5 21 1 12 7 18 13 16 7 -3 18 3 26 12 11 13 11 14 -1 7 -10 -6
-12 -4 -6 6 7 11 5 11 -10 -1 -17 -13 -18 -13 -11 0 4 8 1 7 -7 -3 -10 -12
-17 -14 -22 -8 -3 6 -1 11 6 11 7 0 10 3 6 6 -3 4 -17 -3 -31 -14 -23 -18 -24
-21 -8 -28 9 -4 20 -6 25 -6 4 1 7 -2 7 -8 0 -14 -28 -12 -33 3 -2 6 -8 9 -12
5 -4 -4 -2 -15 6 -24 13 -16 12 -16 -8 -4 -12 8 -19 19 -15 25 11 18 11 35 -1
29 -8 -5 -7 -2 1 7 16 18 15 28 -3 25 -18 -3 -32 -16 -17 -16 14 0 12 -22 -3
-32 -6 -5 -5 -8 3 -8 8 0 10 -5 6 -12 -12 -19 -11 -82 0 -90 7 -5 6 -8 -3 -8
-11 0 -11 -3 0 -17 8 -9 9 -14 4 -11 -7 4 -10 -12 -10 -43 0 -44 2 -48 20 -44
18 5 17 4 -2 -6 -20 -11 -21 -18 -21 -115 0 -58 -1 -107 -4 -109 -2 -2 -51 -5
-108 -7 l-105 -3 0 -112 c1 -104 -1 -111 -17 -102 -10 5 -18 6 -18 2 0 -4 -5
-1 -10 7 -8 12 -10 12 -10 1 0 -11 -3 -11 -17 0 -9 8 -14 9 -10 3 4 -7 -48
-11 -174 -11 -151 -1 -180 1 -175 13 3 8 2 14 -2 14 -4 0 -7 64 -7 143 1 88
-3 145 -10 149 -7 5 -7 8 1 8 12 0 13 158 1 177 -4 6 -3 14 3 18 5 3 10 18 10
32 0 23 -2 24 -17 12 -17 -13 -17 -13 -3 5 16 21 17 29 20 249 2 132 5 159 19
168 14 9 14 10 -1 5 -21 -6 -24 14 -5 33 8 9 8 12 0 7 -8 -4 -11 14 -10 69 1
68 6 80 29 77 3 -1 9 5 12 13 6 18 2 18 -27 4 -21 -10 -21 -10 -3 5 17 14 16
20 -4 18 -3 0 -7 8 -7 19 -2 17 7 23 29 21 3 -1 9 5 12 13 6 18 2 18 -27 4
-19 -9 -18 -7 3 10 l25 20 -24 -4 c-13 -2 -21 -1 -17 2 18 18 42 10 55 -18 10
-23 16 -28 22 -18 12 19 11 29 -2 26 -6 -1 -13 4 -15 11 -1 7 0 8 3 2 2 -5 10
-7 16 -3 16 10 57 11 51 1 -3 -4 0 -8 5 -8 6 0 11 4 11 9 0 6 9 9 19 8 11 0
18 -4 15 -8 -2 -4 3 -12 12 -17 15 -8 15 -10 -1 -15 -9 -4 -13 -11 -10 -17 3
-5 0 -10 -7 -10 -9 0 -9 -3 2 -10 13 -9 13 -11 0 -20 -11 -7 -11 -10 -2 -10 7
0 11 -4 7 -9 -3 -5 -1 -12 4 -16 6 -3 1 -20 -10 -40 -12 -19 -16 -35 -10 -35
6 0 8 -8 4 -17 -3 -10 -2 -15 2 -10 5 4 9 15 10 25 3 26 16 52 24 47 9 -5 7
32 -2 41 -11 12 -8 26 4 18 8 -5 8 -1 0 14 -13 25 -14 35 -3 28 10 -6 9 30 -1
40 -3 4 -1 16 5 28 6 11 11 21 11 21 0 0 -5 10 -11 21 -6 12 -8 24 -5 28 4 3
7 44 8 91 2 55 7 91 16 102 10 12 10 15 1 9 -10 -6 -12 9 -11 72 l2 80 59 4
c32 2 66 0 76 -3 9 -3 30 -3 46 1 l31 6 0 104 -1 105 -436 3 -437 2 2 -317z
m213 79 c-1 -7 -8 -18 -14 -24 -16 -16 -15 -33 1 -20 10 9 13 1 12 -38 0 -27
-6 -55 -12 -62 -17 -16 -17 -33 0 -20 10 9 13 6 13 -13 0 -13 -4 -21 -8 -19
-4 3 -8 1 -8 -4 0 -6 -7 -12 -15 -16 -8 -3 -14 0 -12 6 1 6 -4 13 -12 16 -10
3 -11 0 -5 -9 7 -12 5 -12 -9 0 -9 7 -17 10 -17 5 0 -10 -62 -10 -78 0 -5 3
-16 5 -24 3 -7 -2 -9 -2 -4 1 4 2 2 9 -5 14 -10 7 -9 8 6 4 20 -6 20 -6 1 9
-11 8 -14 15 -7 15 7 0 9 5 4 13 -12 20 -14 47 -2 47 6 0 7 5 2 13 -12 20 -14
47 -2 47 6 0 7 5 2 13 -18 29 -9 33 92 32 77 0 102 -3 101 -13z m1194 8 c0 -5
-5 -10 -11 -10 -5 0 -7 5 -4 10 3 6 8 10 11 10 2 0 4 -4 4 -10z m35 0 c3 -5 1
-10 -4 -10 -6 0 -11 5 -11 10 0 6 2 10 4 10 3 0 8 -4 11 -10z m65 -5 c4 3 10
-2 13 -10 4 -10 1 -12 -10 -8 -10 4 -14 2 -10 -4 4 -6 0 -16 -8 -23 -10 -9
-15 -9 -15 -1 0 6 4 11 9 11 5 0 8 12 6 28 -2 15 -2 21 1 14 3 -6 9 -10 14 -7z
m-38 -12 c-6 -3 -10 -9 -7 -14 4 -5 -1 -6 -10 -3 -14 6 -14 8 2 19 10 8 20 11
23 8 3 -3 -1 -8 -8 -10z m-72 -14 c0 -14 -43 -49 -59 -48 -14 0 -14 1 -1 6 8
3 23 14 32 23 13 13 14 20 5 29 -9 9 -8 11 6 6 9 -4 17 -11 17 -16z m466 7
c16 -13 21 -12 36 1 17 15 43 9 32 -8 -3 -5 0 -16 6 -24 10 -12 10 -18 0 -30
-18 -21 -26 -10 -9 12 13 17 13 17 -4 4 -16 -13 -19 -13 -17 0 4 27 0 40 -11
33 -8 -4 -7 -9 2 -15 12 -7 11 -9 0 -9 -12 0 -12 -3 -3 -12 18 -18 15 -33 -3
-18 -9 7 -14 19 -11 27 3 7 1 13 -4 13 -5 0 -17 8 -26 18 -17 16 -18 16 -11
-2 6 -14 4 -17 -9 -12 -14 5 -15 4 -5 -8 7 -8 10 -19 7 -25 -3 -5 -1 -11 5
-13 7 -2 4 -10 -7 -18 -16 -14 -17 -13 -11 3 4 10 2 17 -6 18 -9 0 -8 2 1 6
10 4 10 8 2 18 -8 10 -8 19 0 34 13 25 20 26 46 7z m-436 -9 c0 -8 -9 -22 -20
-32 -13 -12 -18 -25 -14 -40 4 -16 -1 -26 -20 -38 -14 -10 -31 -17 -38 -16 -7
0 -3 4 10 9 12 5 22 14 22 20 0 6 5 8 10 5 6 -3 10 1 10 9 0 26 -16 26 -30 1
-7 -14 -18 -25 -23 -25 -11 0 11 28 56 72 16 15 26 32 22 38 -3 5 -1 10 4 10
6 0 11 -6 11 -13z m365 -4 c5 -10 9 -42 11 -72 2 -40 0 -51 -9 -42 -6 6 -15
11 -21 11 -5 0 -1 -6 10 -14 22 -17 8 -41 -17 -31 -11 4 -15 22 -14 73 0 65 8
92 25 92 4 0 11 -8 15 -17z m-325 -24 c0 -4 -8 -5 -17 -2 -16 6 -16 5 -4 -10
12 -15 12 -17 -3 -11 -18 7 -18 7 -10 28 6 15 34 11 34 -5z m60 12 c0 -5 -7
-12 -16 -15 -14 -5 -15 -4 -4 9 14 17 20 19 20 6z m340 -15 c0 -7 7 -19 15
-26 8 -7 12 -16 9 -21 -6 -11 -24 -12 -23 -1 3 19 -2 33 -11 27 -5 -3 -10 3
-10 14 0 12 5 21 10 21 6 0 10 -6 10 -14z m-371 -21 c5 2 13 -7 19 -20 7 -15
8 -25 2 -25 -6 0 -10 6 -10 14 0 8 -9 18 -20 21 -12 4 -17 11 -13 18 5 8 8 8
11 -1 2 -7 7 -10 11 -7z m-64 -32 c-19 -18 -30 -17 -15 2 9 10 9 15 1 15 -6 0
-11 5 -11 10 0 6 7 6 19 -2 16 -9 17 -14 6 -25z m45 7 c0 -5 -4 -10 -10 -10
-5 0 -10 5 -10 10 0 6 5 10 10 10 6 0 10 -4 10 -10z m375 -8 c-11 -9 -21 -28
-23 -42 -2 -20 0 -22 8 -10 9 13 10 13 10 0 0 -13 1 -13 10 0 13 20 12 39 -1
20 -8 -12 -9 -11 -6 5 2 11 9 19 16 17 8 -2 21 3 30 11 22 19 54 16 57 -6 1
-10 -3 -16 -9 -14 -7 3 -11 11 -9 18 2 11 -1 11 -10 -1 -7 -8 -20 -15 -28 -15
-8 0 -15 -7 -15 -15 0 -8 8 -14 18 -14 17 2 22 -7 10 -19 -3 -4 -12 -2 -20 4
-9 8 -17 8 -26 0 -8 -6 -17 -8 -20 -4 -4 3 -7 0 -7 -7 0 -11 -4 -10 -17 2 -13
14 -14 20 -3 32 10 12 10 16 0 16 -7 0 -2 9 11 20 13 10 29 19 34 19 6 0 1 -7
-10 -17z m-400 -12 c3 -5 1 -10 -4 -10 -6 0 -11 5 -11 10 0 6 2 10 4 10 3 0 8
-4 11 -10z m40 -6 c14 -6 13 -9 -6 -30 -24 -26 -10 -34 15 -9 8 8 18 15 23 15
4 -1 -3 -10 -17 -22 -24 -21 -24 -21 -2 -15 13 3 20 1 16 -5 -3 -5 -15 -7 -27
-4 -11 3 -29 1 -39 -5 -12 -7 -24 -6 -36 1 -14 9 -13 10 8 4 22 -6 23 -5 11
10 -9 10 -10 16 -2 16 6 0 11 -4 11 -10 0 -18 16 -10 17 8 2 28 -27 23 -65 -9
-36 -32 -40 -33 -62 -18 -12 8 -10 9 7 4 17 -5 20 -2 16 13 -6 23 41 57 65 47
31 -13 62 -15 62 -6 0 5 -6 12 -12 14 -7 3 -10 6 -6 6 3 1 14 -2 23 -5z m415
-14 c0 -5 -4 -10 -10 -10 -5 0 -10 5 -10 10 0 6 5 10 10 10 6 0 10 -4 10 -10z
m35 0 c3 -5 -1 -10 -9 -10 -9 0 -16 5 -16 10 0 6 4 10 9 10 6 0 13 -4 16 -10z
m-595 -24 c0 -3 -4 -8 -10 -11 -5 -3 -10 -1 -10 4 0 6 5 11 10 11 6 0 10 -2
10 -4z m-1300 -56 c0 -5 -4 -10 -10 -10 -5 0 -10 5 -10 10 0 6 5 10 10 10 6 0
10 -4 10 -10z m36 -15 c-3 -9 -11 -13 -18 -9 -8 5 -9 2 -5 -9 3 -10 2 -17 -4
-17 -6 0 -9 8 -7 18 2 9 10 16 16 15 7 -2 12 5 12 14 0 9 3 14 6 10 4 -3 4
-13 0 -22z m61 9 c-3 -3 -12 -4 -19 -1 -8 3 -5 6 6 6 11 1 17 -2 13 -5z m-41
-31 c-1 -16 -7 -27 -14 -26 -6 2 -10 -6 -9 -17 1 -11 7 -20 14 -20 7 0 13 -5
13 -10 0 -7 -6 -7 -19 -1 -20 11 -23 58 -3 53 7 -1 12 3 11 10 -2 19 0 38 5
38 3 0 4 -12 2 -27z m98 18 c3 -5 -1 -14 -9 -21 -12 -10 -18 -10 -30 0 -18 15
-11 30 15 30 10 0 21 -4 24 -9z m-174 -11 c0 -5 -4 -10 -10 -10 -5 0 -10 5
-10 10 0 6 5 10 10 10 6 0 10 -4 10 -10z m110 -15 c0 -8 6 -14 13 -12 7 1 12
-8 12 -23 0 -14 -5 -24 -11 -23 -5 1 -15 -7 -22 -18 -14 -21 -3 -25 18 -6 12
10 12 9 1 -5 -11 -15 -11 -18 -1 -18 8 0 11 -3 8 -6 -4 -3 -16 -1 -27 6 -20
10 -20 12 -5 35 9 14 20 22 25 19 5 -3 9 4 9 16 0 12 -4 19 -9 15 -6 -3 -15 4
-21 15 -7 13 -7 20 0 20 5 0 10 -7 10 -15z m1361 -2 c13 -16 12 -17 -3 -4 -17
13 -22 21 -14 21 2 0 10 -8 17 -17z m-1441 -47 c0 -6 -4 -5 -9 3 -6 9 -11 10
-15 2 -9 -14 -26 -14 -26 -1 0 6 5 9 11 8 6 -2 14 3 17 11 3 9 0 11 -8 6 -9
-6 -11 -4 -5 5 6 10 11 9 22 -5 7 -11 13 -24 13 -29z m156 32 c4 -7 3 -8 -4
-4 -8 5 -12 -1 -12 -14 0 -13 4 -19 12 -14 7 4 8 3 4 -5 -10 -15 -26 -4 -26
18 0 28 14 39 26 19z m-86 -18 c0 -5 -4 -10 -10 -10 -5 0 -10 5 -10 10 0 6 5
10 10 10 6 0 10 -4 10 -10z m-80 -40 c0 -5 -4 -10 -10 -10 -5 0 -10 5 -10 10
0 6 5 10 10 10 6 0 10 -4 10 -10z m42 -19 c-8 -4 -13 -11 -12 -15 1 -4 -1 -12
-4 -19 -3 -9 -1 26 3 41 1 1 7 2 14 2 9 0 9 -2 -1 -9z m98 -1 c0 -5 -4 -10
-10 -10 -5 0 -10 5 -10 10 0 6 5 10 10 10 6 0 10 -4 10 -10z m-160 -10 c0 -5
-4 -10 -10 -10 -5 0 -10 5 -10 10 0 6 5 10 10 10 6 0 10 -4 10 -10z m27 -12
c-3 -8 -6 -5 -6 6 -1 11 2 17 5 13 3 -3 4 -12 1 -19z m44 -11 c-10 -9 -11 -8
-5 6 3 10 9 15 12 12 3 -3 0 -11 -7 -18z m67 -18 c2 -8 0 -10 -5 -4 -12 15
-47 19 -37 4 4 -8 3 -10 -5 -5 -6 4 -9 12 -6 17 9 13 48 4 53 -12z m34 -1 c-7
-7 -12 -8 -12 -2 0 6 3 14 7 17 3 4 9 5 12 2 2 -3 -1 -11 -7 -17z m1145 7 c0
-8 -4 -12 -9 -9 -5 3 -6 10 -3 15 9 13 12 11 12 -6z m213 -240 c19 -22 8 -25
-12 -3 -10 10 -14 18 -9 18 5 0 14 -7 21 -15z m70 5 c0 -5 -4 -10 -10 -10 -5
0 -10 5 -10 10 0 6 5 10 10 10 6 0 10 -4 10 -10z m60 -2 c0 -11 -12 -10 -30 2
-12 7 -10 9 8 7 12 0 22 -5 22 -9z m35 2 c-3 -5 -11 -10 -16 -10 -6 0 -7 5 -4
10 3 6 11 10 16 10 6 0 7 -4 4 -10z m-130 -29 c-3 -11 -1 -22 5 -26 5 -3 10
-12 10 -18 0 -7 -5 -4 -11 6 -5 9 -18 17 -27 17 -16 1 -16 1 1 11 9 6 15 14
12 20 -4 5 -1 9 5 9 7 0 9 -8 5 -19z m44 -2 c-11 -11 -23 -18 -27 -15 -3 4 3
13 14 21 28 22 37 18 13 -6z m87 6 c-23 -18 -36 -19 -36 -4 0 5 4 8 8 5 4 -2
14 -1 22 5 23 14 27 10 6 -6z m-176 -5 c0 -5 -2 -10 -4 -10 -3 0 -8 5 -11 10
-3 6 -1 10 4 10 6 0 11 -4 11 -10z m140 -25 c0 -2 -7 -1 -17 2 -11 4 -14 3 -9
-5 5 -8 1 -10 -11 -5 -17 7 -17 6 -1 -17 9 -14 22 -24 28 -22 6 1 9 -2 6 -7
-3 -5 3 -11 14 -14 11 -3 20 -11 19 -19 0 -10 -2 -10 -6 0 -2 6 -10 12 -17 12
-7 0 -25 14 -42 31 -27 28 -28 31 -12 43 10 7 14 17 10 21 -4 4 3 2 16 -4 12
-6 22 -14 22 -16z m-132 -15 c7 -11 9 -20 4 -20 -4 0 -13 9 -20 20 -7 11 -9
20 -4 20 4 0 13 -9 20 -20z m142 -10 c-20 -13 -33 -13 -25 0 3 6 14 10 23 10
15 0 15 -2 2 -10z m-156 -40 c-6 -6 -10 -3 -10 10 0 13 4 16 10 10 7 -7 7 -13
0 -20z m86 21 c-1 -20 -16 -26 -31 -10 -15 15 -15 17 7 17 13 0 24 -3 24 -7z
m90 -1 c0 -5 -4 -10 -10 -10 -5 0 -10 5 -10 10 0 6 5 10 10 10 6 0 10 -4 10
-10z m-133 -17 c-4 -3 1 -12 11 -19 16 -12 16 -14 -2 -31 -18 -17 -18 -17 -6
6 11 21 10 23 -4 18 -12 -5 -15 -3 -10 5 5 8 1 9 -12 5 -18 -7 -18 -7 0 8 20
15 35 21 23 8z m59 -9 c-4 -11 -2 -15 7 -11 26 10 37 -8 14 -22 -12 -8 -19
-10 -15 -6 4 5 0 13 -9 20 -9 7 -13 17 -9 23 11 18 19 14 12 -4z m-81 -34 c8
-13 -5 -13 -25 0 -13 8 -13 10 2 10 9 0 20 -4 23 -10z m-386 -234 c11 -14 6
-15 -27 -7 -4 1 8 21 12 21 2 0 9 -6 15 -14z m-1369 -41 c-7 -9 -15 -13 -18
-10 -3 2 1 11 8 20 7 9 15 13 18 10 3 -2 -1 -11 -8 -20z m181 -88 c-6 -6 -11
-7 -11 -1 0 5 -5 2 -11 -6 -9 -13 -10 -13 -6 0 2 8 10 14 17 12 7 -2 9 5 5 20
-5 21 -5 21 6 5 8 -14 8 -22 0 -30z m-114 17 c-3 -3 -12 -4 -19 -1 -8 3 -5 6
6 6 11 1 17 -2 13 -5z m1313 -18 c0 -2 -8 -10 -17 -17 -16 -13 -17 -12 -4 4
13 16 21 21 21 13z m-43 -21 c0 -8 -4 -12 -9 -9 -5 3 -6 10 -3 15 9 13 12 11
12 -6z m-1197 -5 c0 -5 -4 -10 -10 -10 -5 0 -10 5 -10 10 0 6 5 10 10 10 6 0
10 -4 10 -10z m42 -27 c-7 -12 -7 -25 -1 -36 10 -17 5 -37 -11 -37 -4 0 -11 7
-14 16 -5 14 -4 15 9 4 16 -13 18 -10 9 14 -3 9 -9 14 -13 12 -4 -3 -13 5 -21
17 -12 20 -12 21 4 8 9 -8 20 -10 24 -6 4 4 1 10 -5 12 -7 3 -13 9 -13 15 0 6
7 4 17 -3 15 -12 16 -12 9 6 -5 15 -4 17 4 9 8 -8 9 -18 2 -31z m-42 -33 c0
-5 -4 -10 -10 -10 -5 0 -10 5 -10 10 0 6 5 10 10 10 6 0 10 -4 10 -10z m1295
-10 c3 -5 1 -10 -4 -10 -6 0 -11 5 -11 10 0 6 2 10 4 10 3 0 8 -4 11 -10z
m-1285 -30 c11 -11 17 -20 13 -20 -11 1 -43 26 -43 34 0 11 9 7 30 -14z m302
-22 c-7 -7 -12 -8 -12 -2 0 14 12 26 19 19 2 -3 -1 -11 -7 -17z m91 5 c-5 -12
-3 -14 7 -8 9 5 11 4 6 -4 -4 -6 -12 -8 -18 -5 -8 5 -9 1 -5 -12 7 -18 6 -18
-6 -2 -8 10 -18 14 -22 10 -5 -4 -5 -1 -1 6 4 7 11 10 16 7 4 -3 10 2 14 10 3
8 8 15 10 15 3 0 2 -7 -1 -17z m51 1 c3 -8 0 -16 -7 -20 -7 -4 -9 -4 -5 1 4 4
0 13 -8 20 -15 11 -15 12 -1 12 9 0 18 -6 21 -13z m-456 -19 c-3 -3 -9 2 -12
12 -6 14 -5 15 5 6 7 -7 10 -15 7 -18z m-106 -3 c-1 -8 6 -11 23 -8 14 3 25 1
25 -4 0 -5 -12 -8 -27 -6 -16 1 -27 8 -25 14 1 7 -8 12 -20 12 -20 0 -20 -1
-5 -18 10 -10 17 -22 17 -26 0 -5 -9 2 -19 15 -11 13 -17 28 -14 32 8 13 48 3
45 -11z m458 -1 c7 -14 7 -22 0 -26 -6 -4 -10 -3 -9 2 4 21 -2 34 -13 27 -7
-4 -8 -3 -4 4 10 16 14 15 26 -7z m-310 -11 c0 -5 -7 -7 -15 -4 -8 4 -15 8
-15 10 0 2 7 4 15 4 8 0 15 -4 15 -10z m260 2 c0 -5 -7 -9 -15 -9 -8 0 -12 4
-9 9 3 4 9 8 15 8 5 0 9 -4 9 -8z m160 -17 c0 -2 -6 -7 -12 -11 -7 -4 -10 -4
-6 1 4 4 0 14 -10 22 -15 13 -15 13 6 3 12 -6 22 -13 22 -15z m20 15 c0 -5 -2
-10 -4 -10 -3 0 -8 5 -11 10 -3 6 -1 10 4 10 6 0 11 -4 11 -10z m1035 -8 c-3
-3 -11 0 -18 7 -9 10 -8 11 6 5 10 -3 15 -9 12 -12z m-1657 -33 c-3 -8 -7 -3
-11 10 -4 17 -3 21 5 13 5 -5 8 -16 6 -23z m168 19 c4 -6 3 -8 -4 -4 -7 4 -10
-2 -9 -14 1 -12 6 -19 14 -16 7 3 13 1 13 -5 0 -19 -33 -5 -36 15 -4 31 9 46
22 24z m349 2 c-3 -5 -1 -10 4 -10 6 0 11 -8 11 -17 0 -15 -2 -14 -14 2 -13
18 -13 35 0 35 3 0 2 -4 -1 -10z m54 -13 c0 -9 -2 -8 -6 1 -2 6 -10 9 -15 6
-7 -4 -8 -2 -4 5 9 13 26 5 25 -12z m-519 -12 c0 -8 6 -14 13 -12 7 1 12 -8
12 -23 -1 -20 -5 -24 -23 -23 -15 2 -21 -1 -16 -9 4 -7 3 -8 -5 -4 -17 11 -2
28 18 21 12 -3 17 1 18 15 1 11 -2 18 -7 15 -5 -3 -14 4 -20 15 -7 13 -7 20 0
20 5 0 10 -7 10 -15z m80 5 c0 -5 -5 -10 -11 -10 -5 0 -7 5 -4 10 3 6 8 10 11
10 2 0 4 -4 4 -10z m360 0 c0 -5 -5 -10 -11 -10 -5 0 -7 5 -4 10 3 6 8 10 11
10 2 0 4 -4 4 -10z m125 0 c-3 -5 -11 -10 -16 -10 -6 0 -7 5 -4 10 3 6 11 10
16 10 6 0 7 -4 4 -10z m-604 -23 c-10 -9 -11 -8 -5 6 3 10 9 15 12 12 3 -3 0
-11 -7 -18z m449 3 c0 -5 -4 -10 -10 -10 -5 0 -10 5 -10 10 0 6 5 10 10 10 6
0 10 -4 10 -10z m120 0 c0 -5 -4 -10 -10 -10 -5 0 -10 5 -10 10 0 6 5 10 10
10 6 0 10 -4 10 -10z m980 0 c0 -5 -5 -10 -11 -10 -5 0 -7 5 -4 10 3 6 8 10
11 10 2 0 4 -4 4 -10z m40 6 c0 -3 -4 -8 -10 -11 -5 -3 -10 -1 -10 4 0 6 5 11
10 11 6 0 10 -2 10 -4z m-1613 -28 c-3 -8 -6 -5 -6 6 -1 11 2 17 5 13 3 -3 4
-12 1 -19z m52 9 c-2 -1 -13 -9 -24 -17 -19 -14 -19 -14 -6 3 7 9 18 17 24 17
6 0 8 -1 6 -3z m86 -7 c-11 -5 -15 -9 -10 -10 12 -1 -36 -39 -50 -40 -5 0 4 9
20 20 17 11 26 20 22 20 -5 0 -5 5 -2 10 3 6 14 10 23 9 14 0 13 -2 -3 -9z
m305 0 c0 -5 -2 -10 -4 -10 -3 0 -8 5 -11 10 -3 6 -1 10 4 10 6 0 11 -4 11
-10z m55 0 c3 -5 1 -10 -4 -10 -6 0 -11 5 -11 10 0 6 2 10 4 10 3 0 8 -4 11
-10z m35 0 c0 -5 -4 -10 -10 -10 -5 0 -10 5 -10 10 0 6 5 10 10 10 6 0 10 -4
10 -10z m-342 -25 c-3 -3 -9 2 -12 12 -6 14 -5 15 5 6 7 -7 10 -15 7 -18z
m436 9 c3 -8 2 -12 -4 -9 -6 3 -10 10 -10 16 0 14 7 11 14 -7z m-154 -4 c0 -5
-4 -10 -10 -10 -5 0 -10 5 -10 10 0 6 5 10 10 10 6 0 10 -4 10 -10z m1100 0
c0 -5 -2 -10 -4 -10 -3 0 -8 5 -11 10 -3 6 -1 10 4 10 6 0 11 -4 11 -10z
m-1544 -22 c4 -7 4 -10 -1 -6 -4 4 -14 0 -21 -10 -12 -15 -12 -15 -7 6 6 24
18 29 29 10z m109 2 c-3 -5 -12 -10 -18 -10 -7 0 -6 4 3 10 19 12 23 12 15 0z
m315 0 c8 -5 11 -10 5 -10 -5 0 -17 5 -25 10 -8 5 -10 10 -5 10 6 0 17 -5 25
-10z m110 0 c-8 -5 -22 -9 -30 -9 -10 0 -8 3 5 9 27 12 43 12 25 0z m50 6 c0
-2 -7 -7 -16 -10 -8 -3 -12 -2 -9 4 6 10 25 14 25 6z m1070 0 c0 -2 -8 -10
-17 -17 -16 -13 -17 -12 -4 4 13 16 21 21 21 13z m-1610 -37 c0 -6 -4 -7 -10
-4 -5 3 -10 11 -10 16 0 6 5 7 10 4 6 -3 10 -11 10 -16z m440 11 c0 -5 -4 -10
-10 -10 -5 0 -10 5 -10 10 0 6 5 10 10 10 6 0 10 -4 10 -10z m69 -18 c-1 -15
-2 -15 -6 1 -2 9 -9 14 -15 11 -7 -4 -8 -2 -4 5 10 15 26 4 25 -17z m51 24 c0
-2 -9 -6 -20 -9 -11 -3 -18 -1 -14 4 5 9 34 13 34 5z m940 -6 c0 -5 -5 -10
-11 -10 -5 0 -7 5 -4 10 3 6 8 10 11 10 2 0 4 -4 4 -10z m-1090 -15 c0 -7 -30
-13 -34 -7 -3 4 4 9 15 9 10 1 19 0 19 -2z m65 -13 c-3 -3 -11 0 -18 7 -9 10
-8 11 6 5 10 -3 15 -9 12 -12z m636 -39 c13 -16 12 -17 -3 -4 -17 13 -22 21
-14 21 2 0 10 -8 17 -17z m-984 -9 c0 -8 -4 -14 -9 -14 -5 0 -16 6 -23 14 -12
11 -10 14 9 14 13 0 23 -7 23 -14z m908 7 c3 -5 2 -12 -3 -15 -5 -3 -9 1 -9 9
0 17 3 19 12 6z m-1040 -20 c-3 -6 -11 -11 -17 -11 -6 0 -6 6 2 15 14 17 26
13 15 -4z m1085 11 c0 -5 -7 -9 -15 -9 -8 0 -12 4 -9 9 3 4 9 8 15 8 5 0 9 -4
9 -8z m-1120 -16 c0 -3 -4 -8 -10 -11 -5 -3 -10 -1 -10 4 0 6 5 11 10 11 6 0
10 -2 10 -4z m120 -46 c0 -5 -2 -10 -4 -10 -3 0 -8 5 -11 10 -3 6 -1 10 4 10
6 0 11 -4 11 -10z m1016 -2 c3 -4 -1 -5 -10 -4 -8 1 -18 5 -22 8 -3 4 1 5 10
4 8 -1 18 -5 22 -8z m114 6 c0 -8 -19 -13 -24 -6 -3 5 1 9 9 9 8 0 15 -2 15
-3z m-93 -29 c0 -8 -4 -12 -9 -9 -5 3 -6 10 -3 15 9 13 12 11 12 -6z m37 -13
c3 -5 -1 -9 -9 -9 -8 0 -12 4 -9 9 3 4 7 8 9 8 2 0 6 -4 9 -8z m60 -8 c3 -8 2
-12 -4 -9 -6 3 -10 10 -10 16 0 14 7 11 14 -7z m-4 -28 c0 -2 -8 -10 -17 -17
-16 -13 -17 -12 -4 4 13 16 21 21 21 13z m-1255 -16 c3 -5 2 -10 -4 -10 -5 0
-13 5 -16 10 -3 6 -2 10 4 10 5 0 13 -4 16 -10z m1160 -11 c-3 -12 -7 -24 -10
-27 -3 -3 -3 5 -1 19 6 30 5 29 10 29 3 0 3 -10 1 -21z m49 3 c3 -5 -1 -9 -9
-9 -8 0 -15 4 -15 9 0 4 4 8 9 8 6 0 12 -4 15 -8z m-109 -41 c3 -5 2 -12 -3
-15 -5 -3 -9 1 -9 9 0 17 3 19 12 6z m-895 -23 c0 -10 2 -10 9 0 7 11 9 11 14
-1 4 -10 0 -14 -11 -12 -9 2 -20 4 -24 4 -12 1 -9 21 2 21 6 0 10 -6 10 -12z
m940 -14 c0 -8 -19 -13 -24 -6 -3 5 1 9 9 9 8 0 15 -2 15 -3z m-776 -58 c-3
-7 -17 -12 -32 -11 -15 1 -37 -6 -48 -14 -19 -14 -20 -17 -5 -29 9 -7 10 -11
3 -7 -7 4 -19 1 -27 -5 -8 -7 -15 -9 -15 -6 0 4 -6 4 -12 -1 -7 -4 -22 -9 -33
-10 -16 -3 -17 -1 -5 7 11 7 12 10 2 10 -8 0 1 12 18 26 17 15 29 32 26 39 -3
8 8 11 35 10 22 -1 44 4 50 11 14 17 51 0 43 -20z m836 20 c0 -3 -4 -8 -10
-11 -5 -3 -10 -1 -10 4 0 6 5 11 10 11 6 0 10 -2 10 -4z m-990 -24 c0 -13 -12
-22 -22 -16 -10 6 -1 24 13 24 5 0 9 -4 9 -8z m885 -11 c3 -5 2 -12 -3 -15 -5
-3 -9 1 -9 9 0 17 3 19 12 6z m120 0 c3 -5 2 -12 -3 -15 -5 -3 -9 1 -9 9 0 17
3 19 12 6z"/>
<path d="M3524 3259 c-2 -4 0 -10 6 -14 6 -4 7 -12 3 -18 -12 -19 -12 -36 -2
-43 6 -3 6 -11 1 -17 -7 -11 -8 -29 -2 -42 1 -3 3 -8 4 -12 1 -5 8 -19 15 -32
9 -16 16 -20 23 -13 6 6 17 8 26 4 12 -4 14 -1 9 14 -7 19 -7 19 8 0 11 -14
15 -16 15 -5 0 12 2 12 10 -1 8 -12 10 -12 10 -1 0 11 4 11 19 -3 17 -15 19
-15 32 1 7 10 9 15 5 11 -5 -4 -15 -3 -23 3 -11 10 -10 14 4 24 12 9 18 27 19
54 0 22 -2 39 -4 36 -3 -3 -11 0 -18 6 -11 9 -9 15 9 30 12 10 20 19 17 20
-20 5 -182 4 -186 -2z m156 -18 c-20 -13 -20 -15 -3 -33 25 -28 25 -76 1 -89
-19 -10 -19 -11 -1 -32 18 -22 18 -22 -2 -6 -11 9 -28 15 -37 14 -10 -2 -20 1
-24 6 -10 16 -26 9 -20 -8 4 -10 4 -14 0 -10 -4 4 -13 2 -21 -5 -11 -8 -12 -7
-7 6 4 11 2 16 -7 14 -7 -2 -14 3 -15 10 -1 6 -2 13 -4 15 -7 9 -7 38 1 43 5
3 6 11 2 17 -12 19 -12 36 -2 43 6 4 6 10 0 18 -8 9 10 12 75 11 76 0 83 -1
64 -14z"/>
<path d="M3560 3232 c-18 -19 -21 -40 -9 -48 5 -3 6 -11 2 -17 -11 -18 -12
-36 -2 -43 5 -3 7 -9 4 -14 -6 -10 15 -8 33 4 7 4 18 4 25 -1 16 -12 27 -10
53 7 20 13 21 15 5 29 -9 9 -12 13 -7 9 30 -23 32 18 3 50 -10 11 -13 22 -7
28 6 6 -6 9 -31 10 -33 1 -39 -2 -34 -15 5 -14 4 -14 -8 0 -11 15 -14 15 -27
1z m85 -1 c-3 -2 3 -13 12 -23 21 -24 28 -55 8 -38 -8 7 -16 7 -19 2 -3 -6 1
-15 9 -22 29 -24 -10 -47 -43 -26 -7 4 -19 3 -27 -4 -10 -8 -15 -8 -21 2 -12
19 -13 37 -3 44 6 3 5 12 -3 22 -10 12 -10 14 0 8 6 -4 12 -2 12 3 0 6 -6 11
-12 11 -9 0 -8 3 2 10 9 5 19 5 27 -2 11 -9 16 -5 15 13 0 3 10 5 23 5 14 0
22 -2 20 -5z"/>
<path d="M3610 3215 c-10 -12 -16 -13 -29 -3 -14 12 -14 11 -2 -4 9 -13 10
-18 2 -18 -7 0 -10 -4 -6 -9 3 -5 1 -12 -4 -15 -8 -5 -8 -14 -2 -45 1 -2 8 2
16 9 10 8 19 9 28 3 11 -8 19 -9 44 -4 3 0 -1 9 -11 20 -14 15 -14 20 -3 29 8
7 18 8 23 4 5 -4 -2 5 -15 21 -29 32 -25 31 -41 12z m25 -34 c-13 -15 -13 -19
2 -33 12 -13 13 -16 2 -15 -8 2 -20 6 -27 11 -7 4 -19 3 -27 -4 -11 -9 -13 -7
-11 7 2 11 10 17 22 15 15 -3 17 -1 7 9 -18 19 14 54 34 38 11 -10 11 -14 -2
-28z"/>
<path d="M3611 3196 c-7 -8 -8 -17 -3 -20 6 -3 15 1 21 8 7 8 8 17 3 20 -6 3
-15 -1 -21 -8z"/>
<path d="M5265 3230 c-4 -6 -2 -17 4 -24 6 -7 8 -16 5 -19 -4 -4 -8 -17 -9
-31 -2 -17 1 -23 10 -20 18 7 27 32 14 40 -6 4 -6 11 2 20 10 12 10 14 -1 12
-7 -2 -15 3 -18 11 -3 9 0 11 8 6 9 -5 11 -4 6 3 -9 15 -13 15 -21 2z m25 -64
c0 -3 -4 -8 -10 -11 -5 -3 -10 -1 -10 4 0 6 5 11 10 11 6 0 10 -2 10 -4z"/>
<path d="M5267 3099 c7 -7 15 -10 18 -7 3 3 -2 9 -12 12 -14 6 -15 5 -6 -5z"/>
<path d="M4894 3105 c-4 -8 -10 -12 -15 -9 -5 3 -9 -2 -9 -10 0 -23 13 -20 38
9 17 20 19 25 7 25 -9 0 -18 -7 -21 -15z"/>
<path d="M3668 3008 c9 -9 15 -9 24 0 9 9 7 12 -12 12 -19 0 -21 -3 -12 -12z"/>
<path d="M3650 1415 c-10 -12 -8 -13 10 -10 29 6 34 11 16 18 -8 3 -20 0 -26
-8z"/>
<path d="M3558 1374 c-26 -29 -28 -55 -4 -35 6 5 16 10 21 10 6 1 10 5 10 10
0 5 11 18 24 28 18 15 20 20 8 20 -9 0 -14 -4 -11 -9 3 -4 1 -8 -5 -8 -5 0
-11 4 -13 8 -1 4 -15 -6 -30 -24z m23 3 c-6 -8 -9 -17 -6 -20 3 -4 2 -5 -2 -2
-3 3 -13 -1 -22 -7 -9 -7 -5 0 8 15 25 27 43 39 22 14z"/>
<path d="M5530 3460 c0 -5 5 -10 11 -10 5 0 7 5 4 10 -3 6 -8 10 -11 10 -2 0
-4 -4 -4 -10z"/>
<path d="M5610 3420 c0 -5 5 -10 11 -10 5 0 7 5 4 10 -3 6 -8 10 -11 10 -2 0
-4 -4 -4 -10z"/>
<path d="M5580 3366 c0 -2 8 -10 18 -17 15 -13 16 -12 3 4 -13 16 -21 21 -21
13z"/>
<path d="M4653 3325 c0 -8 4 -12 9 -9 5 3 6 10 3 15 -9 13 -12 11 -12 -6z"/>
<path d="M4274 3240 c0 -13 4 -16 10 -10 7 7 7 13 0 20 -6 6 -10 3 -10 -10z"/>
<path d="M4037 2833 c9 -3 8 -11 -4 -30 -16 -24 -17 -24 -30 -7 -13 17 -13 17
-13 0 0 -12 -5 -16 -15 -13 -20 8 -28 -8 -11 -22 10 -9 15 -8 20 4 6 18 26 11
26 -8 0 -7 -4 -6 -11 3 -8 12 -10 12 -8 -5 3 -43 -1 -56 -18 -53 -12 2 -17 -6
-19 -39 l-2 -41 34 5 c19 3 40 1 48 -6 9 -8 16 -8 20 -2 4 5 15 8 26 6 16 -3
19 1 16 18 -3 12 -5 28 -5 36 -1 15 -15 7 -17 -10 -1 -5 -2 -13 -3 -17 0 -5
-8 -9 -16 -9 -8 0 -12 5 -8 10 3 5 -2 5 -13 -1 -11 -5 -25 -7 -32 -5 -7 3 -19
0 -26 -6 -9 -8 -13 -7 -13 4 0 8 5 11 10 8 6 -4 8 0 4 10 -7 19 11 35 36 31
13 -2 17 2 13 13 -3 8 -6 18 -6 21 0 4 -5 0 -11 -8 -9 -13 -10 -13 -6 0 2 8
10 14 17 12 7 -1 9 5 6 15 -3 10 2 29 10 43 9 14 13 17 10 8 -3 -10 2 -22 12
-28 15 -8 15 -11 2 -20 -8 -5 -11 -10 -7 -10 4 0 3 -9 -2 -19 -8 -14 -7 -22 4
-31 11 -9 14 -8 13 7 0 10 3 29 6 42 3 13 2 29 -1 35 -15 23 -9 41 13 41 13 0
20 -5 17 -12 -3 -7 -8 -11 -12 -8 -12 6 -6 -48 7 -72 10 -19 10 -20 -10 -15
-21 5 -21 5 -2 -14 17 -18 20 -18 31 -4 8 10 8 17 1 21 -15 10 -14 92 1 97 9
3 9 7 0 18 -9 10 -15 11 -25 3 -9 -7 -18 -7 -33 0 -11 6 -23 11 -28 10 -4 0
-2 -3 4 -6z m23 -199 c0 -8 -19 -13 -24 -6 -3 5 1 9 9 9 8 0 15 -2 15 -3z"/>
<path d="M4030 2760 c0 -5 5 -10 10 -10 6 0 10 5 10 10 0 6 -4 10 -10 10 -5 0
-10 -4 -10 -10z"/>
<path d="M4035 2729 c-4 -6 -5 -12 -2 -15 2 -3 7 2 10 11 7 17 1 20 -8 4z"/>
<path d="M3984 2679 c-2 -5 5 -13 16 -19 12 -6 20 -7 20 -1 0 5 12 7 28 5 22
-4 25 -3 14 8 -14 14 -70 19 -78 7z"/>
<path d="M4139 2668 c-7 -32 -5 -58 3 -58 6 0 8 3 5 6 -3 4 -2 15 3 25 7 12 7
20 0 24 -5 3 -10 5 -11 3z"/>
<path d="M3966 2597 c3 -10 9 -15 12 -12 3 3 0 11 -7 18 -10 9 -11 8 -5 -6z"/>
<path d="M4020 2600 c17 -11 21 -51 5 -63 -6 -5 -4 -7 5 -4 28 7 16 77 -14 77
-6 0 -4 -5 4 -10z"/>
<path d="M4066 2601 c-3 -4 6 -7 19 -7 14 0 22 2 19 5 -8 8 -34 10 -38 2z"/>
<path d="M3990 2596 c0 -2 8 -10 18 -17 15 -13 16 -12 3 4 -13 16 -21 21 -21
13z"/>
<path d="M4101 2564 c0 -11 3 -14 6 -6 3 7 2 16 -1 19 -3 4 -6 -2 -5 -13z"/>
<path d="M3994 2556 c1 -8 5 -18 8 -22 4 -3 5 1 4 10 -1 8 -5 18 -8 22 -4 3
-5 -1 -4 -10z"/>
<path d="M4726 2558 c3 -5 10 -6 15 -3 13 9 11 12 -6 12 -8 0 -12 -4 -9 -9z"/>
<path d="M4110 2520 c0 -5 5 -10 10 -10 6 0 10 5 10 10 0 6 -4 10 -10 10 -5 0
-10 -4 -10 -10z"/>
<path d="M3988 2491 c3 -8 1 -12 -5 -8 -5 3 -10 0 -10 -8 0 -11 4 -12 13 -4 7
6 19 7 26 3 11 -6 11 -5 0 8 -10 13 -10 17 0 21 7 3 3 4 -8 4 -15 -1 -20 -6
-16 -16z"/>
<path d="M4034 2469 c-1 -22 1 -37 4 -35 7 8 10 66 3 70 -3 2 -7 -13 -7 -35z"/>
<path d="M4096 2487 c3 -10 9 -15 12 -12 3 3 0 11 -7 18 -10 9 -11 8 -5 -6z"/>
<path d="M4596 2482 c-3 -5 1 -9 9 -9 8 0 12 4 9 9 -3 4 -7 8 -9 8 -2 0 -6 -4
-9 -8z"/>
<path d="M4726 2482 c-3 -5 1 -9 9 -9 8 0 12 4 9 9 -3 4 -7 8 -9 8 -2 0 -6 -4
-9 -8z"/>
<path d="M4100 2451 c0 -7 -5 -9 -12 -5 -7 5 -8 3 -3 -5 5 -9 10 -10 18 -2 6
6 8 14 4 18 -4 3 -7 1 -7 -6z"/>
<path d="M3957 2433 c3 -7 6 -13 8 -13 2 0 5 6 8 13 3 8 -1 14 -8 14 -7 0 -11
-6 -8 -14z"/>
<path d="M4100 2420 c-9 -6 -10 -10 -3 -10 6 0 15 5 18 10 8 12 4 12 -15 0z"/>
<path d="M4130 2419 c0 -5 5 -7 10 -4 6 3 10 8 10 11 0 2 -4 4 -10 4 -5 0 -10
-5 -10 -11z"/>
<path d="M4660 2415 c-7 -8 -16 -12 -21 -9 -5 3 -9 1 -9 -5 0 -5 6 -12 13 -14
9 -4 9 -6 0 -6 -7 -1 -10 -8 -6 -18 5 -15 3 -15 -10 2 -8 10 -13 25 -10 32 3
7 0 13 -7 13 -6 0 -8 -4 -5 -10 3 -5 1 -10 -6 -10 -7 0 -4 -7 7 -15 10 -8 14
-14 8 -13 -7 2 -12 -1 -12 -7 -1 -5 7 -9 16 -7 13 2 11 -2 -6 -16 -13 -10 -19
-21 -15 -26 4 -4 8 -12 8 -17 0 -5 3 -8 6 -6 3 1 14 -4 23 -12 13 -11 14 -16
4 -22 -8 -6 -9 -9 -2 -9 6 0 17 6 23 14 14 16 66 15 82 -1 7 -7 3 -16 -16 -31
-14 -11 -21 -23 -16 -26 5 -3 12 1 15 10 5 13 9 14 21 4 12 -10 18 -10 30 0
13 11 13 15 -4 29 -19 17 -19 17 0 29 10 7 18 15 18 20 -1 4 0 9 1 12 2 3 3
28 4 57 1 37 -2 49 -9 43 -7 -6 -16 -5 -23 2 -9 9 -12 9 -12 -1 0 -7 -4 -10
-10 -6 -5 3 -7 13 -4 23 5 16 5 16 -5 0 -7 -9 -20 -15 -31 -13 -11 2 -18 0
-15 -6 4 -5 2 -9 -3 -9 -16 0 -22 13 -11 27 6 7 9 13 6 13 -2 0 -10 -7 -17
-15z m29 -31 c12 14 26 16 46 5 6 -3 19 -4 30 -4 18 2 21 -3 19 -39 -1 -23 -2
-43 -4 -46 -1 -3 -2 -8 -1 -12 0 -4 -8 -12 -19 -18 -16 -9 -22 -8 -26 5 -3 8
-10 15 -16 15 -5 0 -7 -4 -4 -8 3 -5 -1 -9 -9 -9 -8 0 -13 5 -12 10 1 5 -4 12
-12 15 -8 2 -11 0 -8 -6 4 -5 1 -15 -7 -21 -10 -9 -16 -8 -26 4 -7 8 -17 12
-24 8 -6 -3 -8 -3 -4 2 4 4 2 15 -4 24 -7 9 -9 13 -4 9 11 -10 47 36 49 62 1
19 3 19 13 6 10 -14 13 -14 23 -2z m66 -154 c-3 -5 -1 -10 6 -10 7 0 10 -3 6
-6 -9 -9 -28 6 -22 17 4 5 8 9 11 9 3 0 2 -4 -1 -10z"/>
<path d="M4685 2367 c-10 -14 -15 -16 -15 -7 0 8 -11 -1 -25 -20 -23 -31 -24
-35 -9 -52 16 -17 40 -16 29 2 -9 14 15 23 29 11 7 -6 16 -7 20 -3 4 4 14 -2
22 -12 8 -11 14 -14 14 -7 0 7 5 9 12 5 6 -4 8 -3 4 4 -3 6 -2 13 3 16 15 10
6 71 -10 72 -8 1 -16 3 -19 4 -25 9 -42 5 -55 -13z m60 -13 c13 -16 14 -16 9
-1 -3 9 -2 17 3 17 4 0 9 -13 9 -30 1 -20 -3 -30 -13 -30 -9 0 -11 -5 -7 -12
6 -9 3 -9 -9 0 -9 8 -20 11 -25 8 -6 -3 -15 1 -22 9 -11 13 -14 13 -25 -2 -7
-10 -11 -22 -7 -28 3 -5 -2 -4 -11 4 -16 12 -16 16 -3 35 8 12 19 20 25 19 6
-2 15 6 21 16 12 23 35 21 55 -5z"/>
<path d="M4693 2351 c-10 -15 -9 -22 2 -31 10 -8 15 -8 20 1 6 8 10 7 16 -2 7
-11 9 -11 9 -1 0 8 5 10 12 6 6 -4 3 4 -8 18 -11 15 -22 21 -25 16 -4 -7 -8
-6 -10 1 -2 6 -9 3 -16 -8z m44 -16 c4 -4 3 -5 -4 -1 -6 3 -14 2 -18 -4 -4 -6
-11 -8 -16 -4 -5 3 -7 9 -4 14 6 10 31 7 42 -5z"/>
<path d="M4650 2320 c-6 -11 -8 -20 -6 -20 3 0 10 9 16 20 6 11 8 20 6 20 -3
0 -10 -9 -16 -20z"/>
<path d="M5046 2408 c3 -9 16 -24 30 -32 16 -11 21 -22 17 -34 -5 -14 -3 -15
7 -5 11 10 10 16 -5 33 -10 11 -13 20 -7 20 7 0 12 5 12 11 0 8 -5 7 -15 -1
-13 -11 -18 -10 -30 6 -12 15 -14 16 -9 2z"/>
<path d="M3286 2394 c-9 -24 -2 -26 12 -4 7 11 8 20 3 20 -5 0 -12 -7 -15 -16z"/>
<path d="M3330 2395 c0 -8 2 -15 4 -15 2 0 6 7 10 15 3 8 1 15 -4 15 -6 0 -10
-7 -10 -15z"/>
<path d="M3449 2387 c28 -31 15 -36 -19 -7 -13 11 -25 20 -28 20 -3 0 3 -9 13
-20 23 -26 5 -26 -25 0 -20 17 -40 19 -40 4 0 -3 4 -3 9 0 5 3 14 0 20 -8 9
-11 6 -13 -20 -11 -17 1 -34 7 -38 14 -5 8 -12 3 -19 -14 -7 -15 -8 -25 -2
-25 6 0 10 8 10 18 1 16 1 16 14 0 14 -19 32 -25 21 -8 -12 20 24 9 54 -16 24
-20 30 -31 26 -52 -3 -15 -2 -20 2 -12 3 8 12 21 20 28 7 7 13 19 13 25 0 8
-3 7 -9 -2 -7 -11 -14 -9 -37 13 -30 27 -27 34 6 16 13 -7 27 -7 44 1 26 12
24 17 -19 49 -15 10 -14 7 4 -13z"/>
<path d="M5148 2393 c6 -3 9 -9 6 -15 -4 -6 2 -5 15 1 27 15 27 16 -7 17 -15
1 -21 -1 -14 -3z"/>
<path d="M5110 2384 c0 -8 32 -33 43 -34 4 0 -2 9 -13 20 -21 21 -30 25 -30
14z"/>
<path d="M5210 2386 c0 -8 26 -36 33 -36 2 0 4 7 4 15 0 8 -3 13 -5 10 -3 -3
-11 0 -19 6 -7 6 -13 8 -13 5z"/>
<path d="M5191 2369 c-1 -9 -11 -21 -23 -27 -17 -8 -18 -11 -7 -11 21 -1 43
24 36 41 -4 9 -6 8 -6 -3z"/>
<path d="M5117 2336 c-10 -26 -8 -33 4 -16 9 12 10 10 5 -9 -3 -18 -2 -21 6
-13 8 8 8 18 1 34 -8 19 -10 20 -16 4z"/>
<path d="M5210 2343 c0 -4 5 -15 10 -23 8 -13 10 -13 10 2 0 9 -4 20 -10 23
-5 3 -10 3 -10 -2z"/>
<path d="M3349 2328 c-11 -8 -10 -9 3 -4 11 3 22 -2 28 -14 11 -21 30 -27 30
-9 0 5 -4 7 -10 4 -5 -3 -10 0 -10 8 0 19 -23 28 -41 15z"/>
<path d="M3332 2306 c24 -22 25 -25 10 -40 -9 -9 -11 -16 -5 -16 6 0 14 7 17
16 3 8 10 12 16 9 5 -3 10 -1 10 4 0 6 -5 11 -11 11 -5 0 -7 5 -3 12 4 6 3 8
-4 4 -6 -3 -17 1 -25 9 -9 8 -19 15 -24 15 -4 0 4 -11 19 -24z"/>
<path d="M5190 2321 c0 -5 5 -13 10 -16 6 -3 10 -2 10 4 0 5 -4 13 -10 16 -5
3 -10 2 -10 -4z"/>
<path d="M5085 2310 c3 -5 1 -10 -4 -10 -6 0 -11 -10 -10 -22 0 -23 0 -23 10
1 9 23 10 24 24 5 19 -25 19 -40 0 -24 -9 7 -15 8 -15 2 0 -14 28 -23 35 -11
6 8 -30 69 -41 69 -3 0 -2 -4 1 -10z"/>
<path d="M5154 2309 c-4 -7 -3 -9 4 -5 5 3 12 0 15 -6 2 -7 7 -10 11 -7 4 3 0
12 -8 18 -11 9 -16 9 -22 0z"/>
<path d="M3302 2290 c12 -19 28 -27 28 -14 0 7 -27 34 -34 34 -4 0 -1 -9 6
-20z"/>
<path d="M5223 2291 c-12 -11 -24 -17 -27 -14 -3 4 -6 1 -6 -5 0 -22 23 -12
49 21 18 23 10 22 -16 -2z"/>
<path d="M5046 2287 c3 -10 9 -15 12 -12 3 3 0 11 -7 18 -10 9 -11 8 -5 -6z"/>
<path d="M5140 2281 c0 -6 5 -13 11 -16 6 -5 4 -11 -7 -19 -16 -12 -16 -14 1
-37 10 -14 15 -17 12 -7 -4 10 -2 20 4 23 5 4 7 11 4 16 -4 5 0 9 7 9 8 0 6 5
-5 11 -9 6 -15 14 -12 20 4 5 1 9 -4 9 -6 0 -11 -4 -11 -9z m20 -45 c0 -3 -4
-8 -10 -11 -5 -3 -10 -1 -10 4 0 6 5 11 10 11 6 0 10 -2 10 -4z"/>
<path d="M3390 2270 c0 -5 5 -10 11 -10 5 0 7 5 4 10 -3 6 -8 10 -11 10 -2 0
-4 -4 -4 -10z"/>
<path d="M3453 2237 c-24 -35 -29 -57 -13 -57 5 0 7 6 4 14 -3 7 7 27 21 45
15 17 23 31 18 31 -4 0 -18 -15 -30 -33z"/>
<path d="M5234 2255 c-4 -8 -11 -12 -16 -9 -6 4 -5 -3 1 -15 7 -11 17 -21 24
-20 9 0 9 2 0 6 -7 2 -13 9 -13 14 0 6 4 8 8 5 4 -2 8 4 8 15 0 23 -5 24 -12
4z"/>
<path d="M3360 2256 c0 -2 7 -7 16 -10 8 -3 12 -2 9 4 -6 10 -25 14 -25 6z"/>
<path d="M5061 2240 c-9 -5 -4 -7 13 -7 29 0 32 2 13 10 -8 3 -20 2 -26 -3z"/>
<path d="M5182 2230 c-7 -12 -8 -20 -2 -20 5 0 10 5 10 11 0 5 4 7 10 4 6 -3
7 1 4 9 -8 20 -7 20 -22 -4z"/>
<path d="M5103 2215 c-3 -9 -3 -18 -1 -21 3 -3 8 4 11 16 6 23 -1 27 -10 5z"/>
<path d="M5065 2209 c-11 -16 -1 -19 13 -3 7 8 8 14 3 14 -5 0 -13 -5 -16 -11z"/>
<path d="M5126 2197 c3 -10 9 -15 12 -12 3 3 0 11 -7 18 -10 9 -11 8 -5 -6z"/>
<path d="M5200 2202 c0 -5 7 -9 15 -9 8 0 12 4 9 9 -3 4 -9 8 -15 8 -5 0 -9
-4 -9 -8z"/>
<path d="M3400 2040 c0 -5 5 -10 10 -10 6 0 10 5 10 10 0 6 -4 10 -10 10 -5 0
-10 -4 -10 -10z"/>
<path d="M3334 2025 c-4 -8 -10 -12 -15 -9 -5 3 -9 0 -9 -5 0 -17 40 -52 50
-46 12 7 13 26 3 24 -29 -5 -33 2 -17 26 10 16 12 25 5 25 -6 0 -14 -7 -17
-15z"/>
<path d="M3290 1733 c5 -2 8 -9 4 -14 -3 -5 0 -9 6 -9 15 0 7 23 -8 26 -7 1
-8 0 -2 -3z"/>
<path d="M4974 1726 c1 -8 5 -18 8 -22 4 -3 5 1 4 10 -1 8 -5 18 -8 22 -4 3
-5 -1 -4 -10z"/>
<path d="M4935 1721 c-3 -5 -2 -12 3 -15 5 -3 9 1 9 9 0 17 -3 19 -12 6z"/>
<path d="M3414 1679 c-4 -7 0 -9 14 -5 11 4 23 2 27 -4 3 -5 14 -10 23 -10 11
0 6 6 -12 15 -34 18 -43 19 -52 4z"/>
<path d="M4830 1683 c0 -6 8 -17 18 -24 16 -13 16 -13 2 6 -8 11 -16 22 -17
24 -2 2 -3 0 -3 -6z"/>
<path d="M5006 1678 c3 -5 10 -6 15 -3 13 9 11 12 -6 12 -8 0 -12 -4 -9 -9z"/>
<path d="M4905 1660 c-3 -6 1 -7 9 -4 18 7 21 14 7 14 -6 0 -13 -4 -16 -10z"/>
<path d="M4995 1629 c-1 -31 7 -30 12 1 1 10 -1 21 -5 24 -4 2 -7 -9 -7 -25z"/>
<path d="M4866 1618 c3 -5 10 -6 15 -3 13 9 11 12 -6 12 -8 0 -12 -4 -9 -9z"/>
<path d="M4889 1603 c-13 -16 -12 -17 4 -4 9 7 17 15 17 17 0 8 -8 3 -21 -13z"/>
<path d="M4930 1616 c0 -2 8 -10 18 -17 15 -13 16 -12 3 4 -13 16 -21 21 -21
13z"/>
<path d="M4911 1587 c-8 -10 -7 -14 2 -14 8 0 14 6 14 14 0 7 -1 13 -2 13 -2
0 -8 -6 -14 -13z"/>
<path d="M3421 1563 c-7 -14 -9 -28 -6 -31 3 -3 5 0 5 8 0 9 3 10 13 2 9 -8
16 -6 24 7 9 14 7 20 -7 29 -14 9 -19 6 -29 -15z m29 -3 c0 -5 -4 -10 -10 -10
-5 0 -10 5 -10 10 0 6 5 10 10 10 6 0 10 -4 10 -10z"/>
<path d="M4830 1562 c0 -4 11 -8 25 -8 28 0 24 8 -5 13 -11 2 -20 -1 -20 -5z"/>
<path d="M3534 1509 c-4 -7 -3 -9 3 -6 13 8 34 -15 37 -40 4 -26 58 -25 62 2
4 28 -12 42 -43 40 -16 -1 -33 2 -40 7 -7 6 -14 4 -19 -3z m94 -27 c5 -15 -11
-15 -26 0 -7 7 -12 8 -12 2 0 -5 5 -15 10 -20 7 -7 6 -11 -5 -11 -8 0 -13 2
-10 5 2 3 0 12 -5 22 -7 14 -5 17 17 15 15 0 28 -6 31 -13z"/>
<path d="M3646 1510 c3 -3 11 -5 17 -5 7 0 11 -8 9 -17 -1 -8 5 -18 13 -22 9
-3 14 -10 10 -15 -3 -5 -1 -12 4 -15 10 -7 9 13 -2 30 -3 6 -3 14 0 18 18 18
8 32 -23 32 -18 0 -31 -3 -28 -6z m49 -9 c3 -5 2 -12 -3 -15 -5 -3 -9 1 -9 9
0 17 3 19 12 6z"/>
<path d="M4625 1500 c-3 -6 1 -7 9 -4 18 7 21 14 7 14 -6 0 -13 -4 -16 -10z"/>
<path d="M4668 1503 c7 -3 16 -2 19 1 4 3 -2 6 -13 5 -11 0 -14 -3 -6 -6z"/>
<path d="M4695 1489 c-4 -6 -5 -12 -2 -15 2 -3 7 2 10 11 7 17 1 20 -8 4z"/>
<path d="M4775 1489 c-4 -6 -5 -12 -2 -15 2 -3 7 2 10 11 7 17 1 20 -8 4z"/>
<path d="M4636 1482 c-3 -5 1 -9 9 -9 8 0 12 4 9 9 -3 4 -7 8 -9 8 -2 0 -6 -4
-9 -8z"/>
<path d="M4725 1459 c-4 -6 -13 -8 -19 -6 -7 3 -13 -1 -13 -8 0 -10 5 -11 18
-4 18 9 35 29 25 29 -3 0 -8 -5 -11 -11z"/>
<path d="M4777 1449 c7 -7 15 -10 18 -7 3 3 -2 9 -12 12 -14 6 -15 5 -6 -5z"/>
<path d="M4786 1422 c-3 -5 1 -9 9 -9 8 0 12 4 9 9 -3 4 -7 8 -9 8 -2 0 -6 -4
-9 -8z"/>
<path d="M4635 1400 c-3 -5 -1 -10 4 -10 6 0 11 5 11 10 0 6 -2 10 -4 10 -3 0
-8 -4 -11 -10z"/>
<path d="M4704 1382 c4 -7 2 -21 -5 -30 -12 -15 -11 -15 6 0 16 15 17 20 6 30
-11 11 -13 10 -7 0z"/>
<path d="M4759 1388 c-5 -18 -6 -38 -1 -34 7 8 12 36 6 36 -2 0 -4 -1 -5 -2z"/>
<path d="M4786 1378 c3 -5 0 -17 -8 -26 -11 -15 -11 -15 3 -5 9 7 18 11 20 8
3 -2 5 4 5 14 0 10 -6 18 -13 18 -7 0 -10 -4 -7 -9z"/>
<path d="M3626 1372 c-3 -6 1 -15 9 -22 8 -7 13 -16 10 -20 -3 -5 0 -12 6 -16
8 -4 9 -3 5 4 -8 14 35 12 45 -2 4 -5 6 5 6 22 -1 24 -4 28 -15 19 -10 -8 -16
-7 -23 4 -5 8 -9 10 -9 5 0 -5 -6 -3 -14 3 -8 7 -17 8 -20 3z m64 -36 c-7 -7
-13 -7 -20 0 -6 6 -3 10 10 10 13 0 16 -4 10 -10z"/>
<path d="M4613 1365 c0 -7 6 -11 14 -8 7 3 13 6 13 8 0 2 -6 5 -13 8 -8 3 -14
-1 -14 -8z"/>
<path d="M4626 1342 c-2 -4 4 -8 14 -8 10 0 16 4 14 8 -3 4 -9 8 -14 8 -5 0
-11 -4 -14 -8z"/>
<path d="M3595 1320 c3 -5 8 -10 11 -10 2 0 4 5 4 10 0 6 -5 10 -11 10 -5 0
-7 -4 -4 -10z"/>
</g>
</svg>
