<?xml version="1.0" standalone="no"?>
<!DOCTYPE svg PUBLIC "-//W3C//DTD SVG 20010904//EN"
 "http://www.w3.org/TR/2001/REC-SVG-20010904/DTD/svg10.dtd">
<svg version="1.0" xmlns="http://www.w3.org/2000/svg"
 width="520.000000pt" height="520.000000pt" viewBox="0 0 520.000000 520.000000"
 preserveAspectRatio="xMidYMid meet">
<metadata>
Created by potrace 1.14, written by Peter Selinger 2001-2017
</metadata>
<g transform="translate(0.000000,520.000000) scale(0.100000,-0.100000)"
fill="#000000" stroke="none">
<path d="M2008 5195 c-2 -2 -39 -6 -83 -10 -127 -9 -187 -15 -235 -21 -25 -3
-65 -7 -90 -9 -25 -2 -76 -7 -115 -10 -38 -4 -90 -8 -115 -10 -46 -4 -165 -16
-210 -20 -14 -2 -33 -3 -42 -4 -17 -1 -18 -103 -18 -1996 0 -1589 3 -1995 13
-1996 6 0 21 -2 32 -4 11 -2 43 -7 70 -10 28 -3 65 -8 82 -11 l33 -6 2 -294 3
-294 375 252 375 251 0 884 0 884 50 14 c48 13 99 26 120 30 6 2 96 24 200 50
105 26 197 48 205 50 8 2 27 6 43 10 l27 7 0 -944 0 -945 43 -30 c30 -22 573
-442 672 -520 6 -5 30 -24 55 -43 25 -19 50 -39 57 -45 7 -5 18 -14 25 -20 8
-5 43 -32 78 -60 36 -27 70 -53 75 -57 6 -4 29 -23 51 -40 23 -18 83 -64 133
-103 51 -38 107 -82 124 -97 l32 -27 3 1226 c1 675 -1 1230 -5 1234 -8 6 -142
55 -313 113 -85 29 -368 127 -605 211 -88 31 -214 74 -280 96 -66 23 -124 44
-129 47 -8 4 309 90 404 108 14 3 124 30 245 60 121 31 228 57 239 60 10 2 21
6 24 8 6 7 6 1745 0 1751 -2 3 -22 7 -44 10 -21 4 -77 13 -124 21 -47 8 -173
30 -280 49 -201 35 -237 41 -280 49 -14 3 -41 8 -60 10 -19 3 -60 10 -90 15
-30 6 -107 19 -170 30 -352 61 -458 80 -490 86 -42 9 -108 14 -112 10z"/>
</g>
</svg>
